{"glyphs":{"0":{"ha":840,"x_min":90,"x_max":750,"o":"m 101 330 q 95 363 101 330 q 90 463 90 395 q 101 595 90 530 q 137 723 111 660 q 199 834 162 787 q 293 911 236 882 q 421 940 351 940 q 530 920 480 940 q 614 864 579 899 q 676 782 650 828 q 719 682 703 736 q 742 573 734 627 q 750 463 750 518 q 742 353 750 407 q 719 243 734 298 q 676 142 703 189 q 614 60 650 96 q 530 3 579 24 q 421 -17 480 -17 q 293 13 351 -17 q 199 90 236 42 q 137 201 162 138 q 101 330 111 265 m 139 463 q 145 362 139 412 q 164 262 151 312 q 200 170 178 212 q 253 95 222 128 q 326 44 283 62 q 421 25 370 25 q 515 44 473 25 q 588 95 558 62 q 641 170 618 128 q 676 262 663 212 q 695 362 689 313 q 701 463 701 412 q 693 584 701 525 q 664 701 684 643 q 612 802 644 759 q 532 872 581 845 q 421 899 483 899 q 310 872 359 899 q 229 802 260 845 q 177 701 198 759 q 148 584 156 643 q 139 463 139 525 z "},"1":{"ha":385,"x_min":41,"x_max":262,"o":"m 41 734 l 221 926 l 262 926 l 262 0 l 218 0 l 218 863 l 72 703 l 41 734 z "},"2":{"ha":801,"x_min":82,"x_max":667,"o":"m 82 0 l 82 39 q 179 120 142 88 q 269 196 216 151 q 353 273 321 241 q 427 345 386 304 q 493 417 468 386 q 545 486 518 449 q 586 555 572 524 q 610 622 601 587 q 619 689 619 656 q 599 784 619 743 q 545 850 578 826 q 471 886 511 874 q 389 899 431 899 q 236 865 302 899 q 134 774 170 831 l 97 800 q 217 903 140 865 q 390 940 294 940 q 483 926 437 940 q 571 884 529 912 q 638 805 612 855 q 664 689 664 754 q 634 558 664 626 q 565 436 604 490 q 445 304 526 382 q 310 178 365 226 q 147 41 255 131 l 667 41 l 667 0 l 82 0 z "},"3":{"ha":737,"x_min":50,"x_max":646,"o":"m 50 139 l 89 161 q 193 62 127 100 q 350 25 260 25 q 533 84 465 25 q 602 245 602 143 q 580 342 602 300 q 520 409 558 385 q 436 446 483 434 q 334 458 389 458 q 256 457 269 458 l 256 501 q 334 500 269 500 q 457 519 401 500 q 550 585 513 539 q 587 699 587 631 q 518 845 587 791 q 350 899 449 899 q 210 868 269 899 q 97 774 151 838 l 62 802 q 185 902 111 864 q 350 940 259 940 q 487 913 424 940 q 591 830 550 886 q 632 699 632 774 q 618 620 632 656 q 584 560 604 583 q 535 519 563 536 q 483 492 507 501 q 435 479 458 484 q 486 468 459 477 q 542 439 513 458 q 594 394 571 420 q 631 330 616 368 q 646 245 646 291 q 567 56 646 130 q 350 -17 488 -17 q 168 27 246 -17 q 50 139 90 71 z "},"4":{"ha":728,"x_min":53,"x_max":675,"o":"m 53 271 l 53 317 l 476 926 l 534 926 l 534 313 l 675 313 l 675 271 l 534 271 l 534 0 l 490 0 l 490 271 l 53 271 m 102 313 l 490 313 l 490 876 l 102 313 z "},"5":{"ha":797,"x_min":113,"x_max":707,"o":"m 113 139 l 149 165 q 258 60 195 95 q 412 25 321 25 q 591 97 519 25 q 663 275 663 168 q 592 459 663 391 q 412 528 521 528 q 179 432 281 528 l 142 454 l 142 926 l 647 926 l 647 885 l 186 885 l 186 481 q 284 544 224 519 q 412 570 343 570 q 523 551 471 570 q 617 496 576 532 q 683 403 659 460 q 707 275 707 346 q 682 154 707 210 q 617 61 658 98 q 523 4 576 24 q 412 -17 470 -17 q 232 23 303 -17 q 113 139 161 64 z "},"6":{"ha":801,"x_min":90,"x_max":711,"o":"m 90 463 q 100 599 90 533 q 135 728 111 665 q 197 837 160 791 q 292 912 234 884 q 421 940 349 940 q 565 908 508 940 q 664 815 622 876 l 631 786 q 545 869 593 840 q 421 899 496 899 q 308 872 358 899 q 226 802 258 845 q 173 699 194 758 q 143 577 152 639 q 135 449 135 516 q 136 399 135 416 q 178 452 151 425 q 240 505 204 479 q 323 547 276 530 q 418 564 370 564 q 630 489 549 564 q 711 272 711 414 q 692 167 711 218 q 635 75 672 116 q 541 8 599 33 q 412 -17 483 -17 q 287 10 342 -17 q 195 81 231 37 q 135 189 159 126 q 100 319 111 251 q 90 463 90 387 m 142 342 q 156 256 146 298 q 189 171 167 214 q 240 97 210 128 q 314 45 269 65 q 412 25 358 25 q 525 48 475 25 q 605 107 575 71 q 651 187 635 144 q 667 272 667 229 q 598 458 667 394 q 416 522 530 522 q 259 472 334 522 q 142 342 184 422 z "},"7":{"ha":679,"x_min":50,"x_max":629,"o":"m 50 885 l 50 926 l 629 926 l 629 896 l 220 0 l 170 0 l 576 885 l 50 885 z "},"8":{"ha":779,"x_min":92,"x_max":688,"o":"m 92 229 q 112 320 92 278 q 167 393 132 363 q 243 445 202 424 q 332 478 285 466 q 249 507 288 488 q 178 553 211 526 q 126 618 145 580 q 107 703 107 657 q 132 807 107 761 q 197 882 156 854 q 287 925 237 910 q 390 940 336 940 q 492 925 443 940 q 583 882 541 910 q 649 807 624 854 q 673 703 673 761 q 654 618 673 657 q 603 553 635 580 q 531 507 570 526 q 449 478 493 488 q 537 445 496 466 q 613 393 578 424 q 667 320 647 363 q 688 229 688 278 q 604 53 688 122 q 390 -17 519 -17 q 175 52 258 -17 q 92 229 92 121 m 136 229 q 172 120 136 168 q 266 49 208 73 q 390 25 323 25 q 567 81 492 25 q 643 229 643 138 q 628 301 643 267 q 590 358 614 335 q 537 401 566 382 q 480 432 509 420 q 428 450 450 444 q 390 458 406 456 q 341 448 370 456 q 276 421 313 439 q 209 377 239 402 q 157 314 178 353 q 136 229 136 275 m 151 703 q 164 637 151 667 q 201 586 178 607 q 249 549 224 565 q 304 523 274 533 q 352 507 334 513 q 390 498 371 502 q 437 510 414 503 q 498 532 461 516 q 562 570 535 549 q 609 626 589 591 q 629 703 629 661 q 560 845 629 792 q 390 899 490 899 q 220 845 288 899 q 151 703 151 792 z "},"9":{"ha":801,"x_min":90,"x_max":711,"o":"m 90 653 q 110 758 90 707 q 166 850 130 809 q 260 917 202 892 q 389 942 318 942 q 514 915 458 942 q 606 844 570 888 q 667 736 642 799 q 701 606 691 674 q 711 463 711 538 q 701 326 711 392 q 666 197 691 260 q 605 88 642 134 q 510 13 568 41 q 380 -16 452 -16 q 237 17 294 -16 q 138 110 180 49 l 171 139 q 257 56 209 85 q 380 26 305 26 q 494 53 444 26 q 576 123 544 80 q 629 227 608 167 q 658 348 650 286 q 667 476 667 409 q 665 526 667 509 q 606 455 644 491 q 507 390 568 419 q 383 361 446 361 q 171 436 252 361 q 90 653 90 511 m 135 653 q 203 467 135 531 q 385 403 271 403 q 542 453 467 403 q 660 583 617 504 q 645 669 656 627 q 613 754 634 711 q 562 828 591 797 q 488 880 532 860 q 389 900 443 900 q 296 885 338 900 q 224 845 253 869 q 175 787 195 820 q 144 721 154 755 q 135 653 135 687 z "},"\u0000":{"ha":0,"x_min":0,"x_max":0,"o":""},"\r":{"ha":0,"x_min":0,"x_max":0,"o":""}," ":{"ha":361,"x_min":0,"x_max":0,"o":""},"!":{"ha":288,"x_min":98,"x_max":191,"o":"m 98 33 q 112 64 98 51 q 144 78 125 78 q 177 64 163 78 q 191 33 191 51 q 177 1 191 14 q 144 -12 163 -12 q 112 1 125 -12 q 98 33 98 14 m 115 926 l 174 926 l 158 224 l 131 224 l 115 926 z "},"\"":{"ha":402,"x_min":86,"x_max":317,"o":"m 86 904 q 96 929 86 919 q 122 940 106 940 q 148 929 138 940 q 158 904 158 919 l 138 615 l 107 615 q 86 904 86 888 m 244 904 q 255 929 244 919 q 281 940 265 940 q 307 929 296 940 q 317 904 317 919 l 296 615 l 265 615 q 244 904 244 888 z "},"#":{"ha":787,"x_min":36,"x_max":751,"o":"m 36 265 l 49 306 l 210 306 l 315 621 l 153 621 l 164 661 l 329 661 l 416 926 l 463 926 l 375 661 l 547 661 l 635 926 l 681 926 l 591 661 l 751 661 l 742 621 l 579 621 l 472 306 l 639 306 l 627 265 l 460 265 l 371 0 l 325 0 l 415 265 l 241 265 l 153 0 l 107 0 l 196 265 l 36 265 m 256 306 l 427 306 l 533 621 l 361 621 l 256 306 z "},"$":{"ha":798,"x_min":74,"x_max":714,"o":"m 74 131 l 110 163 q 225 68 156 106 q 382 25 294 29 l 382 467 q 322 484 345 477 q 266 503 299 491 q 213 527 233 515 q 169 557 193 539 q 133 596 146 575 q 112 644 121 616 q 103 705 103 672 q 184 874 103 810 q 382 942 265 939 l 382 1067 l 427 1067 l 427 940 q 693 811 597 930 l 659 779 q 427 899 574 888 l 427 503 q 488 484 463 492 q 546 462 513 475 q 601 435 578 448 q 646 401 623 421 q 683 357 669 380 q 705 302 696 334 q 714 235 714 271 q 706 171 714 203 q 678 107 699 140 q 626 48 657 74 q 543 5 595 23 q 427 -16 492 -12 l 427 -139 l 382 -139 l 382 -17 q 203 26 283 -14 q 74 131 124 66 m 151 705 q 164 644 151 671 q 196 598 178 616 q 249 564 215 581 q 310 538 283 547 q 382 515 337 528 l 382 900 q 218 842 284 897 q 151 705 151 787 m 427 25 q 524 43 481 28 q 592 79 566 58 q 635 128 618 100 q 659 182 652 156 q 665 235 665 208 q 652 307 665 275 q 618 360 638 339 q 564 400 598 382 q 500 430 530 419 q 427 454 471 441 l 427 25 z "},"%":{"ha":985,"x_min":50,"x_max":935,"o":"m 50 713 q 110 876 50 811 q 262 940 170 940 q 415 876 355 940 q 475 713 475 811 q 415 552 475 616 q 262 488 355 488 q 110 552 170 488 q 50 713 50 616 m 96 713 q 143 581 96 636 q 262 525 191 525 q 382 580 335 525 q 429 713 429 635 q 382 847 429 792 q 262 903 336 903 q 143 847 190 903 q 96 713 96 791 m 176 0 l 768 926 l 819 926 l 227 0 l 176 0 m 510 208 q 570 371 510 307 q 722 436 630 436 q 874 371 814 436 q 935 208 935 307 q 874 47 935 111 q 722 -17 814 -17 q 570 47 630 -17 q 510 208 510 111 m 555 208 q 602 76 555 132 q 722 21 649 21 q 842 76 795 21 q 889 208 889 132 q 842 343 889 288 q 722 399 795 399 q 602 343 649 399 q 555 208 555 288 z "},"&":{"ha":884,"x_min":65,"x_max":821,"o":"m 65 232 q 77 313 65 275 q 107 378 89 351 q 155 433 125 406 q 212 478 184 460 q 275 517 239 496 q 195 732 195 642 q 255 881 195 822 q 401 940 315 940 q 534 896 486 940 q 582 771 582 852 q 575 718 582 743 q 557 673 568 693 q 527 633 546 653 q 491 599 509 613 q 448 568 474 585 q 402 539 422 551 q 353 511 382 528 q 339 504 344 507 q 469 345 389 431 q 608 197 543 263 q 718 435 669 289 l 762 418 q 750 386 760 412 q 736 350 741 360 q 722 315 732 339 q 705 275 712 290 q 687 239 697 260 q 666 199 677 218 q 643 163 654 180 q 821 0 730 78 l 747 0 q 614 123 695 45 q 338 -17 503 -17 q 143 48 220 -17 q 65 232 65 114 m 114 232 q 132 142 114 182 q 182 77 151 102 q 253 38 214 52 q 338 25 293 25 q 579 158 474 25 q 433 314 473 266 q 298 481 352 405 q 228 435 257 457 q 170 382 198 412 q 128 314 142 352 q 114 232 114 277 m 243 732 q 315 541 243 652 q 363 566 349 558 q 406 592 378 574 q 448 620 435 609 q 481 650 462 631 q 510 686 501 669 q 526 725 519 703 q 533 771 533 747 q 497 866 533 833 q 401 899 460 899 q 289 851 336 899 q 243 732 243 804 z "},"'":{"ha":244,"x_min":86,"x_max":158,"o":"m 86 904 q 96 929 86 919 q 122 940 106 940 q 148 929 138 940 q 158 904 158 919 l 138 615 l 107 615 q 86 904 86 888 z "},"(":{"ha":286,"x_min":65,"x_max":262,"o":"m 65 338 q 240 951 65 665 l 262 936 q 151 645 188 779 q 114 338 114 511 q 151 30 114 165 q 262 -260 188 -104 l 240 -277 q 65 338 65 10 z "},")":{"ha":286,"x_min":24,"x_max":221,"o":"m 24 -260 q 135 30 98 -104 q 172 338 172 165 q 135 645 172 511 q 24 936 98 779 l 46 951 q 221 338 221 665 q 46 -277 221 10 l 24 -260 z "},"*":{"ha":458,"x_min":57,"x_max":401,"o":"m 57 679 l 204 754 l 57 829 l 78 865 l 216 775 l 208 940 l 250 940 l 241 775 l 380 865 l 401 829 l 254 754 l 401 679 l 380 643 l 241 733 l 250 568 l 208 568 l 216 733 l 78 643 l 57 679 z "},"+":{"ha":686,"x_min":40,"x_max":646,"o":"m 40 447 l 40 489 l 321 489 l 321 789 l 366 789 l 366 489 l 646 489 l 646 447 l 366 447 l 366 139 l 321 139 l 321 447 l 40 447 z "},",":{"ha":288,"x_min":81,"x_max":197,"o":"m 81 -139 q 134 -79 114 -115 q 154 -11 154 -43 q 143 -12 146 -12 q 111 1 123 -12 q 98 33 98 14 q 111 65 98 52 q 143 78 123 78 q 182 58 166 78 q 197 4 197 39 q 172 -92 197 -45 q 111 -164 146 -139 l 81 -139 z "},"-":{"ha":416,"x_min":41,"x_max":375,"o":"m 41 315 l 41 357 l 375 357 l 375 315 l 41 315 z "},".":{"ha":288,"x_min":98,"x_max":191,"o":"m 98 33 q 112 64 98 51 q 144 78 125 78 q 177 64 163 78 q 191 33 191 51 q 177 1 191 14 q 144 -12 163 -12 q 112 1 125 -12 q 98 33 98 14 z "},"/":{"ha":372,"x_min":0,"x_max":372,"o":"m 0 -28 l 329 954 l 372 954 l 43 -28 l 0 -28 z "},":":{"ha":288,"x_min":98,"x_max":191,"o":"m 98 33 q 112 64 98 51 q 144 78 125 78 q 177 64 163 78 q 191 33 191 51 q 177 1 191 14 q 144 -12 163 -12 q 112 1 125 -12 q 98 33 98 14 m 98 635 q 112 667 98 654 q 144 681 125 681 q 177 667 163 681 q 191 635 191 654 q 177 604 191 617 q 144 590 163 590 q 112 604 125 590 q 98 635 98 617 z "},";":{"ha":288,"x_min":81,"x_max":197,"o":"m 81 -139 q 134 -79 114 -115 q 154 -11 154 -43 q 143 -12 146 -12 q 111 1 123 -12 q 98 33 98 14 q 111 65 98 52 q 143 78 123 78 q 182 58 166 78 q 197 4 197 39 q 172 -92 197 -45 q 111 -164 146 -139 l 81 -139 m 98 635 q 112 667 98 654 q 144 681 125 681 q 177 667 163 681 q 191 635 191 654 q 177 604 191 617 q 144 590 163 590 q 112 604 125 590 q 98 635 98 617 z "},"<":{"ha":686,"x_min":40,"x_max":646,"o":"m 40 450 l 40 479 l 646 806 l 646 755 l 97 464 l 646 175 l 646 125 l 40 450 z "},"=":{"ha":686,"x_min":40,"x_max":646,"o":"m 40 306 l 40 347 l 646 347 l 646 306 l 40 306 m 40 581 l 40 623 l 646 623 l 646 581 l 40 581 z "},">":{"ha":686,"x_min":40,"x_max":646,"o":"m 40 125 l 40 175 l 589 464 l 40 755 l 40 806 l 646 479 l 646 450 l 40 125 z "},"?":{"ha":648,"x_min":36,"x_max":591,"o":"m 36 791 q 334 940 140 940 q 521 878 451 940 q 591 728 591 816 q 575 647 591 684 q 532 583 558 610 q 474 533 506 557 q 410 489 442 510 q 352 446 378 467 q 310 397 326 425 q 293 339 293 370 q 305 301 293 322 q 339 265 317 280 l 313 233 q 252 339 252 279 q 268 409 252 377 q 309 465 283 441 q 366 509 335 488 q 429 553 397 531 q 486 598 460 574 q 527 655 511 623 q 543 728 543 688 q 488 849 543 800 q 334 899 432 899 q 177 864 239 899 q 68 762 115 829 l 36 791 m 262 33 q 276 64 262 51 q 309 78 290 78 q 340 65 327 78 q 354 33 354 52 q 341 1 354 14 q 309 -12 328 -12 q 276 1 290 -12 q 262 33 262 14 z "},"@":{"ha":1087,"x_min":49,"x_max":1038,"o":"m 49 339 q 95 552 49 450 q 216 727 140 654 q 393 843 292 800 q 600 886 494 886 q 778 851 696 886 q 917 755 860 816 q 1005 610 973 694 q 1038 432 1038 526 q 977 202 1038 286 q 828 118 917 118 q 741 154 774 118 q 708 240 708 190 l 708 249 q 605 156 668 193 q 471 118 541 118 q 318 178 376 118 q 260 338 260 237 q 289 478 260 411 q 366 592 319 545 q 475 667 414 639 q 597 694 536 694 q 712 660 665 694 q 779 574 759 626 l 799 669 l 840 669 l 754 261 q 753 236 753 253 q 775 177 753 199 q 828 155 797 155 q 867 163 846 155 q 911 190 887 170 q 953 240 935 210 q 984 320 972 270 q 997 433 997 371 q 947 643 997 549 q 805 790 897 736 q 596 844 713 844 q 402 802 496 844 q 240 690 309 760 q 131 529 172 621 q 90 340 90 437 q 142 138 90 229 q 286 -5 193 47 q 494 -57 379 -57 q 755 22 629 -57 l 778 -9 q 489 -97 642 -97 q 264 -39 365 -97 q 106 118 163 18 q 49 339 49 218 m 306 338 q 350 206 306 257 q 471 155 393 155 q 613 201 549 155 q 721 310 677 246 l 768 528 q 709 617 753 577 q 597 657 665 657 q 451 611 519 657 q 345 491 383 565 q 306 338 306 418 z "},"A":{"ha":883,"x_min":29,"x_max":854,"o":"m 29 0 l 415 926 l 468 926 l 854 0 l 803 0 l 700 249 l 183 249 l 81 0 l 29 0 m 200 290 l 684 290 l 441 875 l 200 290 z "},"B":{"ha":833,"x_min":122,"x_max":742,"o":"m 122 0 l 122 926 l 471 926 q 654 864 585 926 q 724 690 724 802 q 675 550 724 608 q 559 478 626 492 q 688 399 633 467 q 742 250 742 331 q 670 66 742 133 q 476 0 599 0 l 122 0 m 167 41 l 476 41 q 635 97 578 41 q 693 249 693 153 q 636 395 693 334 q 476 456 578 456 l 167 456 l 167 41 m 167 497 l 471 497 q 622 551 569 497 q 675 690 675 606 q 622 830 675 774 q 471 885 568 885 l 167 885 l 167 497 z "},"C":{"ha":926,"x_min":90,"x_max":876,"o":"m 126 268 q 108 313 126 268 q 90 463 90 358 q 126 657 90 567 q 225 809 163 747 q 372 907 287 871 q 553 942 457 942 q 875 796 748 942 l 840 765 q 714 864 791 827 q 553 900 638 900 q 390 868 467 900 q 259 780 314 836 q 171 641 203 723 q 139 463 139 559 q 171 286 139 368 q 259 146 203 203 q 390 57 314 90 q 553 25 467 25 q 714 61 638 25 q 840 160 791 98 l 876 131 q 553 -17 745 -17 q 372 18 457 -17 q 225 116 287 54 q 126 268 163 178 z "},"D":{"ha":949,"x_min":122,"x_max":859,"o":"m 122 0 l 122 926 l 397 926 q 590 889 503 926 q 736 787 678 851 q 826 640 794 724 q 859 463 859 555 q 826 284 859 368 q 736 137 794 201 q 590 37 678 74 q 397 0 503 0 l 122 0 m 167 41 l 397 41 q 572 74 494 41 q 703 164 651 107 q 782 298 754 221 q 810 463 810 374 q 792 595 810 532 q 740 711 775 659 q 656 803 705 764 q 541 863 607 842 q 397 885 475 885 l 167 885 l 167 41 z "},"E":{"ha":774,"x_min":122,"x_max":689,"o":"m 122 0 l 122 926 l 689 926 l 689 885 l 167 885 l 167 497 l 679 497 l 679 456 l 167 456 l 167 41 l 689 41 l 689 0 l 122 0 z "},"F":{"ha":740,"x_min":122,"x_max":689,"o":"m 122 0 l 122 926 l 689 926 l 689 885 l 167 885 l 167 497 l 679 497 l 679 456 l 167 456 l 167 0 l 122 0 z "},"G":{"ha":983,"x_min":90,"x_max":892,"o":"m 126 268 q 108 313 126 268 q 90 463 90 358 q 126 657 90 567 q 225 809 163 747 q 372 907 287 871 q 553 942 457 942 q 892 799 753 942 l 863 768 q 727 865 808 830 q 553 900 645 900 q 390 868 467 900 q 259 780 314 836 q 171 641 203 723 q 139 463 139 559 q 171 285 139 368 q 259 146 203 203 q 390 56 314 89 q 553 24 467 24 q 722 61 646 24 q 847 149 799 98 l 847 403 l 465 403 l 465 444 l 892 444 l 892 131 q 742 22 830 62 q 553 -18 654 -18 q 372 17 457 -18 q 225 115 287 53 q 126 268 163 177 z "},"H":{"ha":965,"x_min":122,"x_max":843,"o":"m 122 0 l 122 926 l 167 926 l 167 497 l 799 497 l 799 926 l 843 926 l 843 0 l 799 0 l 799 456 l 167 456 l 167 0 l 122 0 z "},"I":{"ha":288,"x_min":122,"x_max":167,"o":"m 122 0 l 122 926 l 167 926 l 167 0 l 122 0 z "},"J":{"ha":646,"x_min":22,"x_max":524,"o":"m 22 104 l 60 138 q 257 25 138 25 q 419 89 359 25 q 479 257 479 153 l 479 926 l 524 926 l 524 257 q 502 137 524 190 q 444 51 481 83 q 359 0 407 18 q 257 -17 311 -17 q 124 13 181 -17 q 22 104 67 42 z "},"K":{"ha":793,"x_min":122,"x_max":750,"o":"m 122 0 l 122 926 l 167 926 l 167 392 l 648 926 l 708 926 l 306 484 l 750 0 l 690 0 l 278 456 l 167 335 l 167 0 l 122 0 z "},"L":{"ha":692,"x_min":122,"x_max":632,"o":"m 122 0 l 122 926 l 167 926 l 167 41 l 632 41 l 632 0 l 122 0 z "},"M":{"ha":1069,"x_min":122,"x_max":947,"o":"m 122 0 l 122 926 l 193 926 l 534 97 l 876 926 l 947 926 l 947 0 l 903 0 l 903 873 l 542 0 l 528 0 l 167 873 l 167 0 l 122 0 z "},"N":{"ha":958,"x_min":122,"x_max":836,"o":"m 122 0 l 122 926 l 167 926 l 791 81 l 791 926 l 836 926 l 836 0 l 791 0 l 167 854 l 167 0 l 122 0 z "},"O":{"ha":1061,"x_min":90,"x_max":971,"o":"m 143 220 q 117 274 143 220 q 90 463 90 328 q 143 705 90 597 q 298 878 197 814 q 530 942 399 942 q 763 878 661 942 q 918 705 864 814 q 971 463 971 596 q 918 220 971 329 q 763 47 864 111 q 530 -17 661 -17 q 298 47 399 -17 q 143 220 197 111 m 139 463 q 186 238 139 337 q 323 82 233 139 q 530 25 412 25 q 736 82 647 25 q 874 238 826 139 q 922 463 922 337 q 874 688 922 589 q 736 844 826 787 q 530 900 647 900 q 323 844 412 900 q 186 688 233 787 q 139 463 139 589 z "},"P":{"ha":770,"x_min":122,"x_max":714,"o":"m 122 0 l 122 926 l 443 926 q 641 850 568 926 q 714 664 714 774 q 682 533 714 592 q 588 438 650 474 q 443 401 525 401 l 167 401 l 167 0 l 122 0 m 167 443 l 441 443 q 604 505 543 443 q 665 664 665 567 q 604 823 665 761 q 441 885 543 885 l 167 885 l 167 443 z "},"Q":{"ha":1061,"x_min":90,"x_max":971,"o":"m 143 220 q 117 274 143 220 q 90 463 90 328 q 143 705 90 597 q 298 878 197 814 q 530 942 399 942 q 763 878 661 942 q 918 705 864 814 q 971 463 971 596 q 936 264 971 356 q 835 106 900 172 l 942 0 l 911 -32 l 803 77 q 530 -17 688 -17 q 298 47 399 -17 q 143 220 197 111 m 139 463 q 186 238 139 337 q 323 82 233 139 q 530 25 412 25 q 771 107 669 25 l 618 261 l 650 293 l 804 138 q 892 280 861 197 q 922 463 922 363 q 874 688 922 589 q 736 844 826 787 q 530 900 647 900 q 323 844 412 900 q 186 688 233 787 q 139 463 139 589 z "},"R":{"ha":804,"x_min":122,"x_max":728,"o":"m 122 0 l 122 926 l 441 926 q 637 857 559 926 q 715 664 715 787 q 637 471 715 541 q 441 400 559 400 l 728 0 l 671 0 l 389 400 l 167 400 l 167 0 l 122 0 m 167 441 l 441 441 q 605 504 543 441 q 667 664 667 567 q 605 823 667 761 q 441 885 543 885 l 167 885 l 167 441 z "},"S":{"ha":798,"x_min":74,"x_max":714,"o":"m 74 131 l 110 163 q 232 64 159 104 q 397 25 305 25 q 529 45 473 25 q 612 98 584 65 q 653 164 640 130 q 665 235 665 198 q 646 321 665 283 q 594 381 627 358 q 519 422 562 404 q 431 453 477 439 q 337 479 384 466 q 249 511 291 492 q 174 553 207 529 q 122 616 142 577 q 103 705 103 654 q 144 833 103 778 q 251 915 185 888 q 393 942 316 942 q 693 811 587 942 l 659 779 q 393 900 566 900 q 221 845 291 900 q 151 705 151 790 q 182 615 151 652 q 263 557 214 578 q 373 519 313 536 q 493 481 433 502 q 602 433 553 461 q 683 355 652 406 q 714 235 714 304 q 706 168 714 201 q 674 101 697 136 q 617 41 652 67 q 526 -1 583 16 q 397 -17 469 -17 q 210 23 294 -17 q 74 131 127 64 z "},"T":{"ha":776,"x_min":53,"x_max":724,"o":"m 53 885 l 53 926 l 724 926 l 724 885 l 410 885 l 410 0 l 366 0 l 366 885 l 53 885 z "},"U":{"ha":933,"x_min":122,"x_max":811,"o":"m 122 351 l 122 926 l 167 926 l 167 351 q 244 111 167 196 q 467 25 321 25 q 689 111 612 25 q 766 351 766 196 l 766 926 l 811 926 l 811 351 q 722 80 811 177 q 467 -17 633 -17 q 211 80 300 -17 q 122 351 122 178 z "},"V":{"ha":883,"x_min":29,"x_max":854,"o":"m 29 926 l 81 926 l 441 52 l 803 926 l 854 926 l 468 0 l 415 0 l 29 926 z "},"W":{"ha":1183,"x_min":35,"x_max":1149,"o":"m 35 926 l 83 926 l 325 66 l 568 926 l 615 926 l 859 66 l 1100 926 l 1149 926 l 885 0 l 832 0 l 591 843 l 351 0 l 298 0 l 35 926 z "},"X":{"ha":886,"x_min":35,"x_max":851,"o":"m 35 0 l 418 475 l 56 926 l 115 926 l 443 511 l 771 926 l 831 926 l 468 476 l 851 0 l 793 0 l 443 441 l 93 0 l 35 0 z "},"Y":{"ha":847,"x_min":29,"x_max":818,"o":"m 29 926 l 86 926 l 424 446 l 761 926 l 818 926 l 446 401 l 446 0 l 401 0 l 401 401 l 29 926 z "},"Z":{"ha":802,"x_min":74,"x_max":729,"o":"m 74 0 l 74 41 l 667 885 l 74 885 l 74 926 l 720 926 l 720 885 l 125 41 l 729 41 l 729 0 l 74 0 z "},"[":{"ha":294,"x_min":47,"x_max":271,"o":"m 47 -264 l 47 942 l 271 942 l 271 900 l 89 900 l 89 -222 l 271 -222 l 271 -264 l 47 -264 z "},"\\":{"ha":372,"x_min":0,"x_max":372,"o":"m 0 954 l 43 954 l 372 -28 l 329 -28 l 0 954 z "},"]":{"ha":294,"x_min":24,"x_max":248,"o":"m 24 -222 l 205 -222 l 205 900 l 24 900 l 24 942 l 248 942 l 248 -264 l 24 -264 l 24 -222 z "},"^":{"ha":589,"x_min":26,"x_max":562,"o":"m 26 463 l 277 926 l 313 926 l 562 463 l 515 463 l 294 889 l 74 463 l 26 463 z "},"_":{"ha":783,"x_min":-4,"x_max":787,"o":"m -4 -56 l 787 -56 l 787 -97 l -4 -97 l -4 -56 z "},"`":{"ha":284,"x_min":0,"x_max":285,"o":"m 0 972 l 62 972 l 285 772 l 243 772 l 0 972 z "},"a":{"ha":713,"x_min":86,"x_max":595,"o":"m 86 207 q 156 370 86 309 q 321 431 226 431 q 553 332 462 431 l 553 484 q 499 606 553 562 q 364 650 445 650 q 246 625 298 650 q 149 545 195 600 l 117 572 q 225 660 168 632 q 364 688 282 688 q 531 636 468 688 q 595 485 595 584 l 595 0 l 553 0 l 553 82 q 321 -17 462 -17 q 208 8 260 -17 q 121 86 155 34 q 86 207 86 138 m 187 340 q 160 313 187 340 q 132 207 132 287 q 187 74 132 127 q 332 21 242 21 q 457 47 399 21 q 553 123 515 73 l 553 290 q 457 367 515 340 q 332 393 399 393 q 187 340 242 393 z "},"b":{"ha":786,"x_min":119,"x_max":703,"o":"m 119 0 l 119 926 l 161 926 l 161 555 q 266 652 203 616 q 403 688 330 688 q 620 591 538 688 q 703 335 703 494 q 621 79 703 176 q 403 -17 538 -17 q 263 20 328 -17 q 161 113 199 57 l 161 0 l 119 0 m 161 154 q 261 60 194 98 q 403 21 328 21 q 590 110 522 21 q 657 335 657 198 q 590 561 657 472 q 403 650 522 650 q 261 610 328 650 q 161 514 194 570 l 161 154 z "},"c":{"ha":684,"x_min":83,"x_max":629,"o":"m 121 159 q 102 199 121 159 q 83 336 83 239 q 121 513 83 433 q 232 640 159 592 q 400 688 305 688 q 531 660 478 688 q 629 575 583 632 l 599 550 q 512 627 559 604 q 403 650 464 650 q 256 608 319 650 q 161 495 193 566 q 129 336 129 425 q 203 111 129 201 q 403 21 277 21 q 599 122 525 21 l 629 96 q 531 11 583 39 q 400 -17 478 -17 q 232 31 305 -17 q 121 159 159 79 z "},"d":{"ha":786,"x_min":83,"x_max":667,"o":"m 83 335 q 166 591 83 494 q 383 688 248 688 q 520 652 456 688 q 625 555 584 616 l 625 926 l 667 926 l 667 0 l 625 0 l 625 113 q 524 20 589 57 q 383 -17 458 -17 q 165 79 248 -17 q 83 335 83 176 m 196 561 q 163 516 196 561 q 129 335 129 472 q 196 110 129 198 q 383 21 264 21 q 526 60 458 21 q 625 154 593 98 l 625 514 q 526 610 593 570 q 383 650 458 650 q 196 561 264 650 z "},"e":{"ha":793,"x_min":83,"x_max":710,"o":"m 83 336 q 124 513 83 433 q 238 641 165 593 q 399 688 311 688 q 534 659 473 688 q 632 582 594 631 q 690 470 670 532 q 710 336 710 407 l 710 322 l 131 322 q 167 172 133 239 q 265 62 201 104 q 412 21 330 21 q 646 122 551 21 l 671 96 q 555 12 617 40 q 412 -17 494 -17 q 175 83 267 -17 q 83 336 83 182 m 131 359 l 665 359 q 655 439 665 399 q 623 517 645 479 q 571 585 602 555 q 495 632 541 614 q 397 650 450 650 q 304 632 347 650 q 230 586 261 614 q 177 519 199 557 q 143 440 155 481 q 131 359 132 400 z "},"f":{"ha":341,"x_min":28,"x_max":421,"o":"m 28 633 l 28 671 l 139 671 l 139 742 q 183 888 139 836 q 307 940 228 940 q 366 931 341 940 q 421 899 391 923 l 396 865 q 307 903 357 903 q 212 861 244 903 q 180 742 180 819 l 180 671 l 317 671 l 317 633 l 180 633 l 180 0 l 139 0 l 139 633 l 28 633 z "},"g":{"ha":786,"x_min":83,"x_max":667,"o":"m 83 334 q 166 590 83 492 q 383 688 248 688 q 520 652 456 688 q 625 555 584 616 l 625 671 l 667 671 l 667 -4 q 590 -207 667 -141 q 383 -272 513 -272 q 239 -251 295 -272 q 126 -171 182 -231 l 157 -136 q 252 -212 200 -190 q 383 -235 304 -235 q 558 -177 490 -235 q 625 -4 625 -120 l 625 113 q 523 18 588 56 q 383 -20 458 -20 q 166 77 248 -20 q 83 334 83 174 m 129 334 q 196 107 129 197 q 383 18 264 18 q 526 58 458 18 q 625 154 593 98 l 625 514 q 526 610 593 570 q 383 650 458 650 q 245 607 303 650 q 158 494 186 564 q 129 334 129 423 z "},"h":{"ha":733,"x_min":119,"x_max":614,"o":"m 119 0 l 119 926 l 161 926 l 161 566 q 270 651 202 615 q 404 688 338 688 q 561 636 508 688 q 614 471 614 585 l 614 0 l 572 0 l 572 471 q 528 610 572 570 q 399 650 484 650 q 266 613 332 650 q 161 524 199 576 l 161 0 l 119 0 z "},"i":{"ha":280,"x_min":100,"x_max":180,"o":"m 112 798 q 106 804 112 798 q 100 827 100 810 q 112 855 100 843 q 140 867 124 867 q 169 855 157 867 q 180 827 180 844 q 169 798 180 810 q 140 786 157 786 q 112 798 124 786 m 119 0 l 119 671 l 161 671 l 161 0 l 119 0 z "},"j":{"ha":280,"x_min":-132,"x_max":180,"o":"m -132 -220 l -106 -184 q -4 -235 -61 -235 q 85 -203 52 -235 q 119 -106 119 -171 l 119 671 l 161 671 l 161 -106 q 118 -231 161 -190 q -4 -272 75 -272 q -132 -220 -76 -272 m 112 798 q 106 804 112 798 q 100 827 100 810 q 112 855 100 843 q 140 867 124 867 q 169 855 157 867 q 180 827 180 844 q 169 798 180 810 q 140 786 157 786 q 112 798 124 786 z "},"k":{"ha":688,"x_min":119,"x_max":659,"o":"m 119 0 l 119 926 l 161 926 l 161 262 l 599 671 l 659 671 l 332 368 l 654 0 l 595 0 l 300 338 l 161 210 l 161 0 l 119 0 z "},"l":{"ha":280,"x_min":119,"x_max":161,"o":"m 119 0 l 119 926 l 161 926 l 161 0 l 119 0 z "},"m":{"ha":1069,"x_min":119,"x_max":950,"o":"m 119 0 l 119 671 l 161 671 l 161 566 q 249 647 187 606 q 376 688 311 688 q 494 650 450 688 q 550 559 538 612 q 643 649 581 610 q 771 688 705 688 q 950 484 950 688 l 950 0 l 908 0 l 908 484 q 764 650 908 650 q 647 613 708 650 q 555 525 587 576 l 555 0 l 514 0 l 514 484 q 370 650 514 650 q 255 613 315 650 q 161 524 196 576 l 161 0 l 119 0 z "},"n":{"ha":733,"x_min":119,"x_max":614,"o":"m 119 0 l 119 671 l 161 671 l 161 566 q 270 651 202 615 q 404 688 338 688 q 561 635 508 688 q 614 468 614 583 l 614 0 l 572 0 l 572 468 q 528 609 572 568 q 399 650 483 650 q 266 613 332 650 q 161 524 199 576 l 161 0 l 119 0 z "},"o":{"ha":791,"x_min":83,"x_max":708,"o":"m 122 158 q 103 198 122 158 q 83 336 83 238 q 122 514 83 435 q 232 641 160 594 q 396 688 304 688 q 561 641 489 688 q 670 515 633 594 q 708 336 708 435 q 670 157 708 237 q 561 30 633 77 q 396 -17 489 -17 q 232 30 304 -17 q 122 158 160 77 m 129 336 q 159 182 129 253 q 252 66 190 111 q 396 21 314 21 q 510 47 458 21 q 594 117 562 73 q 645 218 627 161 q 663 336 663 274 q 645 454 663 398 q 594 554 627 510 q 510 624 562 597 q 396 650 458 650 q 252 605 314 650 q 159 490 190 560 q 129 336 129 419 z "},"p":{"ha":780,"x_min":119,"x_max":703,"o":"m 119 -256 l 119 671 l 161 671 l 161 558 q 263 651 199 614 q 403 688 328 688 q 621 592 538 688 q 703 336 703 496 q 620 80 703 178 q 403 -17 538 -17 q 266 19 330 -17 q 161 115 203 54 l 161 -256 l 119 -256 m 161 157 q 261 61 194 100 q 403 21 328 21 q 590 110 522 21 q 657 336 657 199 q 590 562 657 473 q 403 650 522 650 q 261 611 328 650 q 161 517 194 572 l 161 157 z "},"q":{"ha":780,"x_min":78,"x_max":661,"o":"m 78 336 q 160 592 78 496 q 378 688 242 688 q 517 651 453 688 q 619 558 582 614 l 619 671 l 661 671 l 661 -256 l 619 -256 l 619 115 q 514 19 578 54 q 378 -17 451 -17 q 160 80 243 -17 q 78 336 78 178 m 191 562 q 157 517 191 562 q 123 336 123 473 q 191 110 123 199 q 378 21 258 21 q 519 61 452 21 q 619 157 587 100 l 619 517 q 520 611 587 572 q 378 650 453 650 q 191 562 258 650 z "},"r":{"ha":422,"x_min":119,"x_max":392,"o":"m 119 0 l 119 671 l 161 671 l 161 549 q 392 684 263 684 l 392 633 q 358 635 380 635 q 246 593 307 635 q 161 503 185 551 l 161 0 l 119 0 z "},"s":{"ha":630,"x_min":61,"x_max":547,"o":"m 61 90 l 94 121 q 182 48 127 76 q 307 21 237 21 q 452 65 398 21 q 505 176 505 109 q 481 247 505 218 q 420 292 458 276 q 336 319 382 307 q 244 345 290 332 q 161 377 199 359 q 99 429 123 395 q 75 510 75 463 q 136 637 75 587 q 302 688 197 688 q 533 586 455 688 l 503 558 q 421 625 473 601 q 302 650 369 650 q 167 610 217 650 q 117 510 117 571 q 135 452 117 477 q 184 415 154 428 q 253 389 214 401 q 332 368 292 377 q 411 344 372 359 q 480 310 450 329 q 529 256 510 290 q 547 176 547 222 q 486 38 547 93 q 307 -17 424 -17 q 169 8 227 -17 q 61 90 111 33 z "},"t":{"ha":355,"x_min":17,"x_max":346,"o":"m 17 633 l 17 671 l 127 671 l 127 854 l 170 854 l 170 671 l 306 671 l 306 633 l 170 633 l 170 118 q 188 47 170 73 q 241 21 205 21 q 321 57 290 21 l 346 25 q 241 -17 302 -17 q 156 18 184 -17 q 127 118 127 54 l 127 633 l 17 633 z "},"u":{"ha":733,"x_min":119,"x_max":614,"o":"m 119 200 l 119 671 l 161 671 l 161 200 q 206 61 161 100 q 335 21 250 21 q 469 56 402 21 q 572 143 536 92 l 572 671 l 614 671 l 614 0 l 572 0 l 572 103 q 461 17 526 52 q 329 -17 395 -17 q 172 34 225 -17 q 119 200 119 85 z "},"v":{"ha":654,"x_min":16,"x_max":639,"o":"m 16 671 l 64 671 l 328 49 l 590 671 l 639 671 l 351 0 l 302 0 l 16 671 z "},"w":{"ha":977,"x_min":31,"x_max":947,"o":"m 31 671 l 77 671 l 271 65 l 472 671 l 505 671 l 707 65 l 901 671 l 947 671 l 725 0 l 692 0 l 489 608 l 286 0 l 253 0 l 31 671 z "},"x":{"ha":655,"x_min":31,"x_max":625,"o":"m 31 0 l 304 345 l 46 671 l 100 671 l 328 374 l 555 671 l 610 671 l 351 345 l 625 0 l 571 0 l 328 317 l 85 0 l 31 0 z "},"y":{"ha":654,"x_min":16,"x_max":639,"o":"m 16 671 l 64 671 l 328 49 l 590 671 l 639 671 l 283 -158 q 136 -272 233 -272 q 69 -262 99 -272 l 78 -224 q 136 -235 103 -235 q 195 -215 172 -235 q 241 -143 219 -195 l 302 -4 l 16 671 z "},"z":{"ha":647,"x_min":83,"x_max":564,"o":"m 83 0 l 83 37 l 510 633 l 83 633 l 83 671 l 558 671 l 558 633 l 129 37 l 564 37 l 564 0 l 83 0 z "},"{":{"ha":329,"x_min":9,"x_max":306,"o":"m 9 318 l 9 359 q 63 389 44 359 q 82 460 82 418 l 82 785 q 124 897 82 852 q 220 942 166 942 l 306 942 l 306 900 l 220 900 q 152 867 180 900 q 123 785 123 833 l 123 460 q 61 339 123 366 q 123 218 123 313 l 123 -107 q 152 -189 123 -155 q 220 -222 180 -222 l 306 -222 l 306 -264 l 220 -264 q 124 -219 166 -264 q 82 -107 82 -175 l 82 218 q 63 289 82 260 q 9 318 44 318 z "},"|":{"ha":286,"x_min":122,"x_max":164,"o":"m 122 -28 l 122 954 l 164 954 l 164 -28 l 122 -28 z "},"}":{"ha":329,"x_min":24,"x_max":319,"o":"m 24 -222 l 110 -222 q 177 -189 149 -222 q 205 -107 205 -155 l 205 218 q 268 339 205 313 q 205 460 205 366 l 205 785 q 177 867 205 833 q 110 900 149 900 l 24 900 l 24 942 l 110 942 q 205 897 163 942 q 248 785 248 852 l 248 460 q 266 389 248 418 q 319 359 285 359 l 319 318 q 266 289 285 318 q 248 218 248 260 l 248 -107 q 205 -219 248 -175 q 110 -264 163 -264 l 24 -264 l 24 -222 z "},"~":{"ha":688,"x_min":39,"x_max":650,"o":"m 39 606 q 57 728 45 675 q 89 827 69 781 q 142 899 109 873 q 218 924 175 924 q 296 895 265 924 q 344 824 328 865 q 374 741 360 783 q 412 671 389 700 q 471 642 436 642 q 562 712 529 642 q 608 926 594 783 l 650 922 q 631 800 643 852 q 600 700 620 747 q 547 627 580 652 q 471 602 515 602 q 411 617 437 602 q 369 657 385 633 q 341 712 353 682 q 318 772 329 742 q 295 826 307 802 q 263 866 283 850 q 218 882 244 882 q 127 811 160 882 q 81 599 95 741 l 39 606 z "}," ":{"ha":361,"x_min":0,"x_max":0,"o":""},"¡":{"ha":288,"x_min":98,"x_max":191,"o":"m 98 637 q 112 670 98 656 q 144 684 125 684 q 177 670 163 684 q 191 637 191 656 q 177 606 191 620 q 144 593 163 593 q 112 606 125 593 q 98 637 98 620 m 115 -256 l 131 447 l 158 447 l 174 -256 l 115 -256 z "},"¢":{"ha":684,"x_min":83,"x_max":629,"o":"m 160 99 q 122 149 160 99 q 83 336 83 198 q 160 573 83 475 q 364 685 237 671 l 364 785 l 406 785 l 406 688 q 532 659 481 687 q 629 575 583 631 l 599 550 q 512 625 559 602 q 406 650 465 648 l 406 21 q 599 122 525 21 l 629 96 q 532 12 583 40 q 406 -17 481 -16 l 406 -139 l 364 -139 l 364 -14 q 160 99 237 0 m 129 336 q 156 188 129 255 q 238 76 184 121 q 364 22 292 32 l 364 647 q 192 547 255 633 q 129 336 129 460 z "},"£":{"ha":682,"x_min":24,"x_max":669,"o":"m 24 371 l 24 412 l 222 412 q 184 453 210 427 q 142 498 158 479 q 107 545 125 517 q 80 606 89 572 q 71 679 71 640 q 92 776 71 729 q 150 860 113 823 q 241 918 186 896 q 359 940 296 940 q 504 900 437 940 q 603 796 571 861 l 567 771 q 489 860 546 821 q 359 899 432 899 q 188 839 259 899 q 117 679 117 780 q 133 591 117 633 q 169 526 150 550 q 221 467 189 503 q 269 412 254 431 l 481 412 l 481 371 l 296 371 q 318 282 318 328 q 287 166 318 213 q 199 75 256 119 q 275 89 238 89 q 354 72 315 89 q 428 39 392 56 q 500 22 464 22 q 586 41 544 22 q 644 82 627 60 l 669 45 q 497 -20 603 -20 q 422 -9 454 -20 q 372 14 389 1 q 322 37 354 26 q 250 47 291 47 q 85 -9 196 47 l 65 36 q 223 145 170 81 q 277 282 277 209 q 252 371 277 328 l 24 371 z "},"¤":{"ha":801,"x_min":43,"x_max":755,"o":"m 43 791 l 72 821 l 186 705 q 400 786 273 786 q 614 707 528 786 l 726 819 l 755 790 l 642 676 q 713 463 713 588 q 643 250 713 339 l 755 138 l 726 109 l 615 220 q 400 138 529 138 q 184 220 269 138 l 74 109 l 45 138 l 157 250 q 87 463 87 338 q 158 676 87 589 l 43 791 m 134 463 q 164 324 134 387 q 256 220 194 260 q 400 179 318 179 q 545 220 483 179 q 637 324 607 260 q 667 463 667 387 q 637 600 667 537 q 545 704 607 663 q 400 745 483 745 q 256 704 318 745 q 164 600 194 663 q 134 463 134 537 z "},"¥":{"ha":847,"x_min":29,"x_max":818,"o":"m 29 179 l 29 221 l 401 221 l 401 401 l 29 401 l 29 443 l 371 443 l 29 926 l 86 926 l 424 446 l 761 926 l 818 926 l 475 443 l 818 443 l 818 401 l 446 401 l 446 221 l 818 221 l 818 179 l 446 179 l 446 0 l 401 0 l 401 179 l 29 179 z "},"¦":{"ha":286,"x_min":122,"x_max":164,"o":"m 122 -28 l 122 411 l 164 411 l 164 -28 l 122 -28 m 122 515 l 122 954 l 164 954 l 164 515 l 122 515 z "},"§":{"ha":630,"x_min":61,"x_max":547,"o":"m 61 -5 l 94 25 q 307 -75 170 -75 q 450 -33 395 -75 q 505 81 505 10 q 491 138 505 113 q 451 178 476 163 q 394 205 426 194 q 326 227 361 217 q 255 245 290 236 q 187 269 219 255 q 130 300 155 282 q 90 348 104 319 q 75 414 75 376 q 124 531 75 486 q 256 595 174 576 q 121 656 167 619 q 75 762 75 694 q 135 888 75 837 q 302 940 194 940 q 440 911 382 940 q 533 839 498 883 l 503 811 q 416 880 469 858 q 302 903 363 903 q 169 863 221 903 q 117 760 117 823 q 131 707 117 730 q 171 671 146 685 q 228 647 196 657 q 296 628 260 637 q 368 610 332 619 q 436 586 404 600 q 493 551 468 571 q 533 499 518 531 q 547 425 547 467 q 408 249 547 302 q 512 184 477 223 q 547 81 547 145 q 482 -61 547 -9 q 307 -113 416 -113 q 220 -104 259 -113 q 153 -80 182 -96 q 103 -47 123 -64 q 61 -5 83 -30 m 117 411 q 130 365 117 385 q 158 332 142 345 q 208 306 174 319 q 264 287 242 293 q 331 270 286 281 q 361 262 351 265 q 469 333 432 294 q 505 429 505 372 q 493 480 505 457 q 465 517 481 503 q 419 544 448 531 q 369 564 389 557 q 314 579 349 570 q 161 510 205 551 q 117 411 117 469 z "},"¨":{"ha":350,"x_min":-4,"x_max":354,"o":"m 7 803 q 2 809 7 803 q -4 831 -4 815 q 7 858 -4 846 q 35 869 19 869 q 62 858 50 869 q 74 831 74 846 q 62 803 74 815 q 35 791 50 791 q 7 803 19 791 m 288 803 q 282 809 288 803 q 277 831 277 815 q 288 858 277 846 q 315 869 300 869 q 342 858 331 869 q 354 831 354 846 q 342 803 354 815 q 315 791 331 791 q 288 803 300 791 z "},"©":{"ha":1080,"x_min":61,"x_max":1019,"o":"m 61 464 q 125 705 61 594 q 300 879 190 815 q 541 943 411 943 q 727 905 638 943 q 880 803 816 867 q 981 650 943 739 q 1019 464 1019 562 q 981 278 1019 367 q 880 125 943 189 q 727 22 816 60 q 541 -16 638 -16 q 300 49 411 -16 q 125 224 190 113 q 61 464 61 334 m 97 464 q 120 325 97 392 q 183 203 142 257 q 279 107 224 149 q 401 43 334 66 q 541 21 469 21 q 763 81 661 21 q 924 242 865 140 q 983 464 983 345 q 948 636 983 554 q 853 777 913 718 q 712 871 794 836 q 541 907 631 907 q 369 871 451 907 q 227 777 287 836 q 132 635 168 718 q 97 464 97 553 m 252 467 q 336 678 252 593 q 541 764 420 764 q 741 675 665 764 l 713 647 q 638 705 686 683 q 541 726 590 726 q 366 653 440 726 q 292 465 292 580 q 312 360 292 410 q 368 276 333 311 q 447 222 402 242 q 541 203 492 203 q 638 225 591 203 q 713 283 686 247 l 741 256 q 541 165 663 165 q 336 253 420 165 q 252 467 252 340 z "},"ª":{"ha":516,"x_min":69,"x_max":421,"o":"m 69 587 q 116 693 69 654 q 227 732 163 732 q 383 668 321 732 l 383 762 q 346 838 383 810 q 258 865 309 865 q 115 796 169 865 l 90 822 q 165 881 125 862 q 260 900 205 900 q 376 865 331 900 q 421 762 421 830 l 421 453 l 383 453 l 383 505 q 227 441 321 441 q 116 481 163 441 q 69 587 69 522 m 110 587 q 145 505 110 537 q 239 472 181 472 q 320 489 282 472 q 383 536 359 506 l 383 637 q 320 685 359 668 q 239 701 282 701 q 145 669 181 701 q 110 587 110 636 z "},"«":{"ha":505,"x_min":41,"x_max":464,"o":"m 41 338 l 264 583 l 318 583 l 96 338 l 318 87 l 264 87 l 41 338 m 187 338 l 410 583 l 464 583 l 241 338 l 464 87 l 410 87 l 187 338 z "},"¬":{"ha":686,"x_min":40,"x_max":646,"o":"m 40 581 l 40 623 l 646 623 l 646 306 l 602 306 l 602 581 l 40 581 z "},"­":{"ha":416,"x_min":41,"x_max":375,"o":"m 41 315 l 41 357 l 375 357 l 375 315 l 41 315 z "},"®":{"ha":686,"x_min":49,"x_max":637,"o":"m 49 646 q 135 854 49 768 q 343 940 221 940 q 492 901 424 940 q 598 794 559 862 q 637 646 637 726 q 552 437 637 524 q 343 351 466 351 q 135 437 221 351 q 49 646 49 524 m 85 646 q 160 463 85 539 q 343 387 236 387 q 526 463 450 387 q 602 646 602 539 q 526 829 602 753 q 343 904 451 904 q 160 829 235 904 q 85 646 85 753 m 232 476 l 232 814 l 370 814 q 443 786 413 814 q 472 711 472 758 q 441 637 472 663 q 386 611 410 611 l 476 476 l 425 476 l 338 610 l 272 610 l 272 476 l 232 476 m 272 648 l 370 648 q 411 667 392 648 q 431 711 431 686 q 412 758 431 739 q 370 777 393 777 l 272 777 l 272 648 z "},"¯":{"ha":504,"x_min":0,"x_max":504,"o":"m 0 807 l 0 844 l 504 844 l 504 807 l 0 807 z "},"°":{"ha":379,"x_min":36,"x_max":343,"o":"m 81 678 q 58 700 81 678 q 36 786 36 722 q 81 895 36 850 q 189 940 125 940 q 298 895 253 940 q 343 786 343 850 q 298 678 343 722 q 189 633 253 633 q 81 678 125 633 m 78 786 q 111 708 78 741 q 189 675 144 675 q 268 708 235 675 q 301 786 301 741 q 268 865 301 832 q 189 899 235 899 q 111 865 144 899 q 78 786 78 832 z "},"±":{"ha":686,"x_min":40,"x_max":646,"o":"m 40 0 l 40 41 l 646 41 l 646 0 l 40 0 m 40 447 l 40 489 l 321 489 l 321 789 l 366 789 l 366 489 l 646 489 l 646 447 l 366 447 l 366 139 l 321 139 l 321 447 l 40 447 z "},"²":{"ha":528,"x_min":75,"x_max":452,"o":"m 75 585 l 75 618 q 209 719 155 675 q 311 812 262 763 q 384 905 360 861 q 408 991 408 949 q 367 1082 408 1053 q 269 1112 326 1112 q 175 1092 217 1112 q 111 1039 134 1072 l 83 1064 q 161 1126 111 1103 q 271 1149 211 1149 q 320 1144 296 1149 q 368 1127 344 1139 q 409 1097 391 1115 q 438 1053 427 1080 q 449 993 449 1025 q 432 915 449 955 q 388 841 414 876 q 318 766 361 806 q 234 694 274 726 q 136 621 194 663 l 452 621 l 452 585 l 75 585 z "},"³":{"ha":528,"x_min":69,"x_max":453,"o":"m 69 667 l 97 690 q 164 633 122 654 q 261 611 207 611 q 371 644 330 611 q 411 733 411 676 q 366 824 411 794 q 249 854 320 854 q 199 852 211 854 l 199 890 q 249 889 207 889 q 359 917 315 889 q 403 1002 403 945 q 361 1082 403 1053 q 260 1112 320 1112 q 173 1095 210 1112 q 103 1040 136 1078 l 77 1065 q 261 1149 146 1149 q 390 1109 337 1149 q 443 1003 443 1070 q 430 946 443 971 q 398 906 418 920 q 359 883 378 891 q 319 872 339 875 q 361 862 339 871 q 404 837 383 852 q 439 793 425 821 q 453 733 453 766 q 401 619 453 663 q 261 575 350 575 q 144 601 195 575 q 69 667 94 627 z "},"´":{"ha":284,"x_min":0,"x_max":285,"o":"m 0 772 l 222 972 l 285 972 l 41 772 l 0 772 z "},"µ":{"ha":753,"x_min":119,"x_max":718,"o":"m 119 -256 l 119 671 l 161 671 l 161 200 q 338 18 161 18 q 469 55 402 18 q 572 143 536 92 l 572 671 l 614 671 l 614 118 q 632 47 614 73 q 686 21 650 21 q 714 24 703 21 l 718 -14 q 686 -17 698 -17 q 572 103 582 -17 q 465 17 528 52 q 338 -17 401 -17 q 161 74 205 -17 l 161 -256 l 119 -256 z "},"¶":{"ha":623,"x_min":37,"x_max":496,"o":"m 107 519 q 72 554 107 519 q 37 688 37 589 q 107 857 37 787 q 277 926 178 926 l 496 926 l 496 -139 l 454 -139 l 454 885 l 318 885 l 318 -139 l 277 -139 l 277 449 q 107 519 178 449 z "},"·":{"ha":288,"x_min":98,"x_max":191,"o":"m 98 340 q 112 371 98 358 q 144 385 125 385 q 177 371 163 385 q 191 340 191 358 q 177 308 191 321 q 144 294 163 294 q 112 308 125 294 q 98 340 98 321 z "},"¸":{"ha":265,"x_min":0,"x_max":265,"o":"m 0 -221 l 20 -183 q 129 -222 64 -222 q 197 -204 169 -222 q 225 -154 225 -185 q 210 -110 225 -126 q 164 -94 195 -94 q 104 -121 125 -94 l 74 -103 l 117 16 l 158 16 l 122 -81 q 175 -64 143 -64 q 240 -88 216 -64 q 265 -154 265 -113 q 226 -230 265 -200 q 129 -260 187 -260 q 56 -249 91 -260 q 0 -221 21 -237 z "},"¹":{"ha":267,"x_min":28,"x_max":183,"o":"m 28 1017 l 146 1140 l 183 1140 l 183 585 l 142 585 l 142 1084 l 54 989 l 28 1017 z "},"º":{"ha":562,"x_min":66,"x_max":496,"o":"m 66 671 q 126 834 66 768 q 281 900 186 900 q 436 834 377 900 q 496 671 496 769 q 436 507 496 573 q 281 441 377 441 q 126 508 186 441 q 66 671 66 574 m 155 807 q 132 779 155 807 q 109 671 109 751 q 155 534 109 590 q 281 478 201 478 q 409 534 361 478 q 456 671 456 590 q 409 807 456 751 q 281 863 361 863 q 155 807 201 863 z "},"»":{"ha":505,"x_min":41,"x_max":464,"o":"m 41 87 l 264 338 l 41 583 l 96 583 l 318 338 l 96 87 l 41 87 m 187 87 l 410 338 l 187 583 l 241 583 l 464 338 l 241 87 l 187 87 z "},"¼":{"ha":993,"x_min":28,"x_max":929,"o":"m 28 803 l 146 926 l 183 926 l 183 371 l 142 371 l 142 871 l 54 775 l 28 803 m 115 0 l 707 926 l 758 926 l 165 0 l 115 0 m 530 157 l 530 193 l 789 555 l 843 555 l 843 193 l 929 193 l 929 157 l 843 157 l 843 0 l 803 0 l 803 157 l 530 157 m 574 193 l 803 193 l 803 515 l 574 193 z "},"½":{"ha":1048,"x_min":28,"x_max":972,"o":"m 28 803 l 146 926 l 183 926 l 183 371 l 142 371 l 142 871 l 54 775 l 28 803 m 115 0 l 707 926 l 758 926 l 165 0 l 115 0 m 596 0 l 596 33 q 729 135 675 91 q 832 227 783 178 q 905 320 881 276 q 929 407 929 365 q 888 498 929 468 q 790 528 846 528 q 696 508 738 528 q 632 454 654 488 l 604 479 q 682 541 632 519 q 791 564 732 564 q 853 555 823 564 q 910 529 883 547 q 954 480 937 511 q 970 408 970 449 q 952 331 970 370 q 909 256 935 291 q 839 181 882 222 q 755 110 795 141 q 657 36 715 78 l 972 36 l 972 0 l 596 0 z "},"¾":{"ha":1168,"x_min":69,"x_max":1104,"o":"m 69 453 l 97 476 q 164 419 122 440 q 261 397 207 397 q 371 430 330 397 q 411 519 411 463 q 366 610 411 581 q 249 640 320 640 q 199 639 207 640 l 199 676 q 249 675 207 675 q 359 703 315 675 q 403 787 403 730 q 361 868 403 838 q 260 899 320 899 q 173 881 210 899 q 103 827 136 864 l 77 851 q 261 935 146 935 q 390 895 337 935 q 443 789 443 856 q 430 732 443 757 q 398 692 418 707 q 358 669 378 677 q 319 659 339 661 q 361 648 339 657 q 404 623 383 639 q 439 580 425 607 q 453 519 453 553 q 401 405 453 450 q 261 361 350 361 q 144 387 195 361 q 69 453 94 413 m 290 0 l 882 926 l 933 926 l 340 0 l 290 0 m 705 157 l 705 193 l 964 555 l 1018 555 l 1018 193 l 1104 193 l 1104 157 l 1018 157 l 1018 0 l 978 0 l 978 157 l 705 157 m 749 193 l 978 193 l 978 515 l 749 193 z "},"¿":{"ha":543,"x_min":57,"x_max":612,"o":"m 57 -61 q 74 20 57 -18 q 116 83 90 57 q 174 133 142 110 q 238 178 206 157 q 296 221 270 199 q 339 269 322 242 q 355 328 355 296 q 343 366 355 345 q 310 401 332 387 l 336 433 q 397 328 397 388 q 381 257 397 290 q 340 202 366 225 q 283 157 314 179 q 220 114 252 136 q 163 68 189 92 q 122 11 138 44 q 106 -61 106 -22 q 161 -183 106 -134 q 315 -232 217 -232 q 472 -197 410 -232 q 581 -96 533 -163 l 612 -125 q 315 -273 509 -273 q 127 -211 197 -273 q 57 -61 57 -149 m 294 637 q 308 670 294 656 q 340 684 321 684 q 373 670 359 684 q 386 637 386 656 q 373 606 386 620 q 340 593 359 593 q 308 606 321 593 q 294 637 294 620 z "},"À":{"ha":883,"x_min":29,"x_max":854,"o":"m 29 0 l 415 926 l 468 926 l 854 0 l 803 0 l 700 249 l 183 249 l 81 0 l 29 0 m 200 290 l 684 290 l 441 875 l 200 290 m 228 1204 l 290 1204 l 513 1004 l 471 1004 l 228 1204 z "},"Á":{"ha":883,"x_min":29,"x_max":854,"o":"m 29 0 l 415 926 l 468 926 l 854 0 l 803 0 l 700 249 l 183 249 l 81 0 l 29 0 m 200 290 l 684 290 l 441 875 l 200 290 m 371 1004 l 593 1204 l 656 1204 l 412 1004 l 371 1004 z "},"Â":{"ha":883,"x_min":29,"x_max":854,"o":"m 29 0 l 415 926 l 468 926 l 854 0 l 803 0 l 700 249 l 183 249 l 81 0 l 29 0 m 200 290 l 684 290 l 441 875 l 200 290 m 281 1004 l 416 1204 l 467 1204 l 607 1004 l 568 1004 l 441 1171 l 319 1004 l 281 1004 z "},"Ã":{"ha":883,"x_min":29,"x_max":854,"o":"m 29 0 l 415 926 l 468 926 l 854 0 l 803 0 l 700 249 l 183 249 l 81 0 l 29 0 m 200 290 l 684 290 l 441 875 l 200 290 m 233 1010 q 266 1142 233 1088 q 355 1196 298 1196 q 407 1179 385 1196 q 442 1140 429 1163 q 467 1095 455 1118 q 495 1055 478 1072 q 533 1039 511 1039 q 592 1076 570 1039 q 615 1187 615 1113 l 652 1187 q 619 1055 652 1109 q 529 1002 586 1002 q 477 1018 499 1002 q 443 1057 456 1034 q 418 1103 429 1080 q 390 1142 406 1126 q 351 1158 373 1158 q 292 1121 315 1158 q 269 1010 269 1084 l 233 1010 z "},"Ä":{"ha":883,"x_min":29,"x_max":854,"o":"m 29 0 l 415 926 l 468 926 l 854 0 l 803 0 l 700 249 l 183 249 l 81 0 l 29 0 m 200 290 l 684 290 l 441 875 l 200 290 m 275 1035 q 270 1041 275 1035 q 264 1063 264 1047 q 275 1090 264 1078 q 302 1101 287 1101 q 330 1090 318 1101 q 342 1063 342 1078 q 330 1035 342 1047 q 302 1023 318 1023 q 275 1035 287 1023 m 556 1035 q 550 1041 556 1035 q 545 1063 545 1047 q 556 1090 545 1078 q 583 1101 568 1101 q 611 1090 599 1101 q 623 1063 623 1078 q 611 1035 623 1047 q 583 1023 599 1023 q 556 1035 568 1023 z "},"Å":{"ha":883,"x_min":29,"x_max":854,"o":"m 29 0 l 415 926 l 468 926 l 854 0 l 803 0 l 700 249 l 183 249 l 81 0 l 29 0 m 200 290 l 684 290 l 441 875 l 200 290 m 352 999 q 333 1018 352 999 q 314 1090 314 1038 q 352 1181 314 1143 q 443 1219 390 1219 q 533 1181 496 1219 q 571 1090 571 1143 q 533 999 571 1038 q 443 961 496 961 q 352 999 390 961 m 347 1090 q 375 1022 347 1050 q 443 994 404 994 q 510 1022 482 994 q 538 1090 538 1050 q 510 1158 538 1131 q 443 1186 482 1186 q 375 1158 403 1186 q 347 1090 347 1130 z "},"Æ":{"ha":1291,"x_min":29,"x_max":1202,"o":"m 29 0 l 619 926 l 1202 926 l 1202 885 l 679 885 l 679 497 l 1192 497 l 1192 456 l 679 456 l 679 41 l 1202 41 l 1202 0 l 635 0 l 635 249 l 237 249 l 81 0 l 29 0 m 261 290 l 635 290 l 635 875 l 261 290 z "},"Ç":{"ha":926,"x_min":90,"x_max":876,"o":"m 90 463 q 126 657 90 567 q 225 809 163 747 q 372 907 287 871 q 553 942 457 942 q 875 796 748 942 l 840 765 q 714 864 791 827 q 553 900 638 900 q 390 868 467 900 q 259 780 314 836 q 171 641 203 723 q 139 463 139 559 q 171 286 139 368 q 259 146 203 203 q 390 57 314 90 q 553 25 467 25 q 714 61 638 25 q 840 160 791 98 l 876 131 q 559 -17 747 -15 l 538 -75 q 590 -58 559 -58 q 656 -83 631 -58 q 681 -149 681 -107 q 642 -224 681 -195 q 545 -254 603 -254 q 471 -243 507 -254 q 415 -215 436 -232 l 435 -178 q 545 -216 479 -216 q 612 -198 585 -216 q 640 -149 640 -180 q 625 -105 640 -121 q 579 -89 610 -89 q 519 -115 541 -89 l 489 -97 l 518 -16 q 350 28 429 -9 q 214 127 271 66 q 123 276 157 189 q 90 463 90 363 z "},"È":{"ha":774,"x_min":122,"x_max":689,"o":"m 122 0 l 122 926 l 689 926 l 689 885 l 167 885 l 167 497 l 679 497 l 679 456 l 167 456 l 167 41 l 689 41 l 689 0 l 122 0 m 192 1204 l 254 1204 l 476 1004 l 435 1004 l 192 1204 z "},"É":{"ha":774,"x_min":122,"x_max":689,"o":"m 122 0 l 122 926 l 689 926 l 689 885 l 167 885 l 167 497 l 679 497 l 679 456 l 167 456 l 167 41 l 689 41 l 689 0 l 122 0 m 335 1004 l 557 1204 l 619 1204 l 376 1004 l 335 1004 z "},"Ê":{"ha":774,"x_min":122,"x_max":689,"o":"m 122 0 l 122 926 l 689 926 l 689 885 l 167 885 l 167 497 l 679 497 l 679 456 l 167 456 l 167 41 l 689 41 l 689 0 l 122 0 m 240 1004 l 376 1204 l 427 1204 l 567 1004 l 528 1004 l 401 1171 l 279 1004 l 240 1004 z "},"Ë":{"ha":774,"x_min":122,"x_max":689,"o":"m 122 0 l 122 926 l 689 926 l 689 885 l 167 885 l 167 497 l 679 497 l 679 456 l 167 456 l 167 41 l 689 41 l 689 0 l 122 0 m 235 1035 q 230 1041 235 1035 q 224 1063 224 1047 q 235 1090 224 1078 q 262 1101 247 1101 q 290 1090 278 1101 q 301 1063 301 1078 q 290 1035 301 1047 q 262 1023 278 1023 q 235 1035 247 1023 m 516 1035 q 510 1041 516 1035 q 504 1063 504 1047 q 516 1090 504 1078 q 543 1101 528 1101 q 570 1090 559 1101 q 582 1063 582 1078 q 570 1035 582 1047 q 543 1023 559 1023 q 516 1035 528 1023 z "},"Ì":{"ha":288,"x_min":-69,"x_max":215,"o":"m -69 1204 l -7 1204 l 215 1004 l 174 1004 l -69 1204 m 122 0 l 122 926 l 167 926 l 167 0 l 122 0 z "},"Í":{"ha":288,"x_min":74,"x_max":358,"o":"m 74 1004 l 296 1204 l 358 1204 l 115 1004 l 74 1004 m 122 0 l 122 926 l 167 926 l 167 0 l 122 0 z "},"Î":{"ha":288,"x_min":-17,"x_max":310,"o":"m -17 1004 l 119 1204 l 170 1204 l 310 1004 l 271 1004 l 144 1171 l 22 1004 l -17 1004 m 122 0 l 122 926 l 167 926 l 167 0 l 122 0 z "},"Ï":{"ha":288,"x_min":-35,"x_max":323,"o":"m -23 1035 q -29 1041 -23 1035 q -35 1063 -35 1047 q -23 1090 -35 1078 q 4 1101 -12 1101 q 31 1090 20 1101 q 43 1063 43 1078 q 31 1035 43 1047 q 4 1023 20 1023 q -23 1035 -12 1023 m 122 0 l 122 926 l 167 926 l 167 0 l 122 0 m 257 1035 q 251 1041 257 1035 q 245 1063 245 1047 q 257 1090 245 1078 q 285 1101 269 1101 q 312 1090 300 1101 q 323 1063 323 1078 q 312 1035 323 1047 q 285 1023 300 1023 q 257 1035 269 1023 z "},"Ð":{"ha":993,"x_min":17,"x_max":901,"o":"m 17 441 l 17 484 l 165 484 l 165 926 l 440 926 q 633 889 545 926 q 779 787 721 851 q 869 640 837 724 q 901 463 901 555 q 869 284 901 368 q 779 137 837 201 q 633 37 721 74 q 440 0 545 0 l 165 0 l 165 441 l 17 441 m 210 41 l 440 41 q 615 74 536 41 q 745 164 694 107 q 825 298 797 221 q 852 463 852 374 q 835 595 852 532 q 783 711 818 659 q 699 803 748 764 q 584 863 650 842 q 440 885 517 885 l 210 885 l 210 484 l 471 484 l 471 441 l 210 441 l 210 41 z "},"Ñ":{"ha":958,"x_min":122,"x_max":836,"o":"m 122 0 l 122 926 l 167 926 l 791 81 l 791 926 l 836 926 l 836 0 l 791 0 l 167 854 l 167 0 l 122 0 m 268 1010 q 300 1142 268 1088 q 390 1196 333 1196 q 442 1179 420 1196 q 477 1140 464 1163 q 502 1095 490 1118 q 530 1055 513 1072 q 568 1039 547 1039 q 627 1076 605 1039 q 650 1187 650 1113 l 686 1187 q 653 1055 686 1109 q 564 1002 621 1002 q 512 1018 534 1002 q 477 1057 490 1034 q 452 1103 464 1080 q 424 1142 441 1126 q 386 1158 408 1158 q 327 1121 349 1158 q 304 1010 304 1084 l 268 1010 z "},"Ò":{"ha":1061,"x_min":90,"x_max":971,"o":"m 143 220 q 117 274 143 220 q 90 463 90 328 q 143 705 90 597 q 298 878 197 814 q 530 942 399 942 q 763 878 661 942 q 918 705 864 814 q 971 463 971 596 q 918 220 971 329 q 763 47 864 111 q 530 -17 661 -17 q 298 47 399 -17 q 143 220 197 111 m 139 463 q 186 238 139 337 q 323 82 233 139 q 530 25 412 25 q 736 82 647 25 q 874 238 826 139 q 922 463 922 337 q 874 688 922 589 q 736 844 826 787 q 530 900 647 900 q 323 844 412 900 q 186 688 233 787 q 139 463 139 589 m 317 1204 l 379 1204 l 602 1004 l 559 1004 l 317 1204 z "},"Ó":{"ha":1061,"x_min":90,"x_max":971,"o":"m 143 220 q 117 274 143 220 q 90 463 90 328 q 143 705 90 597 q 298 878 197 814 q 530 942 399 942 q 763 878 661 942 q 918 705 864 814 q 971 463 971 596 q 918 220 971 329 q 763 47 864 111 q 530 -17 661 -17 q 298 47 399 -17 q 143 220 197 111 m 139 463 q 186 238 139 337 q 323 82 233 139 q 530 25 412 25 q 736 82 647 25 q 874 238 826 139 q 922 463 922 337 q 874 688 922 589 q 736 844 826 787 q 530 900 647 900 q 323 844 412 900 q 186 688 233 787 q 139 463 139 589 m 460 1004 l 682 1204 l 745 1204 l 501 1004 l 460 1004 z "},"Ô":{"ha":1061,"x_min":90,"x_max":971,"o":"m 143 220 q 117 274 143 220 q 90 463 90 328 q 143 705 90 597 q 298 878 197 814 q 530 942 399 942 q 763 878 661 942 q 918 705 864 814 q 971 463 971 596 q 918 220 971 329 q 763 47 864 111 q 530 -17 661 -17 q 298 47 399 -17 q 143 220 197 111 m 139 463 q 186 238 139 337 q 323 82 233 139 q 530 25 412 25 q 736 82 647 25 q 874 238 826 139 q 922 463 922 337 q 874 688 922 589 q 736 844 826 787 q 530 900 647 900 q 323 844 412 900 q 186 688 233 787 q 139 463 139 589 m 370 1004 l 505 1204 l 555 1204 l 696 1004 l 657 1004 l 530 1171 l 408 1004 l 370 1004 z "},"Õ":{"ha":1061,"x_min":90,"x_max":971,"o":"m 143 220 q 117 274 143 220 q 90 463 90 328 q 143 705 90 597 q 298 878 197 814 q 530 942 399 942 q 763 878 661 942 q 918 705 864 814 q 971 463 971 596 q 918 220 971 329 q 763 47 864 111 q 530 -17 661 -17 q 298 47 399 -17 q 143 220 197 111 m 139 463 q 186 238 139 337 q 323 82 233 139 q 530 25 412 25 q 736 82 647 25 q 874 238 826 139 q 922 463 922 337 q 874 688 922 589 q 736 844 826 787 q 530 900 647 900 q 323 844 412 900 q 186 688 233 787 q 139 463 139 589 m 322 1010 q 355 1142 322 1088 q 444 1196 387 1196 q 496 1179 474 1196 q 531 1140 518 1163 q 556 1095 544 1118 q 584 1055 568 1072 q 623 1039 601 1039 q 682 1076 659 1039 q 704 1187 704 1113 l 741 1187 q 708 1055 741 1109 q 618 1002 675 1002 q 566 1018 588 1002 q 531 1057 545 1034 q 507 1103 518 1080 q 478 1142 495 1126 q 440 1158 462 1158 q 381 1121 404 1158 q 358 1010 358 1084 l 322 1010 z "},"Ö":{"ha":1061,"x_min":90,"x_max":971,"o":"m 143 220 q 117 274 143 220 q 90 463 90 328 q 143 705 90 597 q 298 878 197 814 q 530 942 399 942 q 763 878 661 942 q 918 705 864 814 q 971 463 971 596 q 918 220 971 329 q 763 47 864 111 q 530 -17 661 -17 q 298 47 399 -17 q 143 220 197 111 m 139 463 q 186 238 139 337 q 323 82 233 139 q 530 25 412 25 q 736 82 647 25 q 874 238 826 139 q 922 463 922 337 q 874 688 922 589 q 736 844 826 787 q 530 900 647 900 q 323 844 412 900 q 186 688 233 787 q 139 463 139 589 m 360 1035 q 354 1041 360 1035 q 349 1063 349 1047 q 360 1090 349 1078 q 387 1101 372 1101 q 415 1090 403 1101 q 427 1063 427 1078 q 415 1035 427 1047 q 387 1023 403 1023 q 360 1035 372 1023 m 641 1035 q 635 1041 641 1035 q 629 1063 629 1047 q 641 1090 629 1078 q 668 1101 652 1101 q 695 1090 684 1101 q 707 1063 707 1078 q 695 1035 707 1047 q 668 1023 684 1023 q 641 1035 652 1023 z "},"×":{"ha":686,"x_min":98,"x_max":587,"o":"m 98 249 l 314 464 l 98 679 l 127 708 l 343 493 l 558 708 l 587 679 l 372 464 l 587 249 l 558 220 l 343 435 l 127 220 l 98 249 z "},"Ø":{"ha":1061,"x_min":90,"x_max":971,"o":"m 90 463 q 143 705 90 597 q 298 878 197 814 q 530 942 399 942 q 755 882 652 942 l 782 926 l 832 926 l 790 857 q 923 690 876 793 q 971 463 971 586 q 918 220 971 329 q 763 47 864 111 q 530 -17 661 -17 q 304 43 403 -17 l 279 0 l 229 0 l 269 66 q 137 234 184 131 q 90 463 90 338 m 139 463 q 179 256 139 349 q 292 104 218 163 l 733 846 q 530 900 644 900 q 323 844 412 900 q 186 688 233 787 q 139 463 139 589 m 326 79 q 530 25 416 25 q 736 82 647 25 q 874 238 826 139 q 922 463 922 337 q 882 669 922 576 q 768 821 842 762 l 326 79 z "},"Ù":{"ha":933,"x_min":122,"x_max":811,"o":"m 122 351 l 122 926 l 167 926 l 167 351 q 244 111 167 196 q 467 25 321 25 q 689 111 612 25 q 766 351 766 196 l 766 926 l 811 926 l 811 351 q 722 80 811 177 q 467 -17 633 -17 q 211 80 300 -17 q 122 351 122 178 m 253 1204 l 315 1204 l 538 1004 l 496 1004 l 253 1204 z "},"Ú":{"ha":933,"x_min":122,"x_max":811,"o":"m 122 351 l 122 926 l 167 926 l 167 351 q 244 111 167 196 q 467 25 321 25 q 689 111 612 25 q 766 351 766 196 l 766 926 l 811 926 l 811 351 q 722 80 811 177 q 467 -17 633 -17 q 211 80 300 -17 q 122 351 122 178 m 396 1004 l 618 1204 l 681 1204 l 437 1004 l 396 1004 z "},"Û":{"ha":933,"x_min":122,"x_max":811,"o":"m 122 351 l 122 926 l 167 926 l 167 351 q 244 111 167 196 q 467 25 321 25 q 689 111 612 25 q 766 351 766 196 l 766 926 l 811 926 l 811 351 q 722 80 811 177 q 467 -17 633 -17 q 211 80 300 -17 q 122 351 122 178 m 309 1004 l 444 1204 l 494 1204 l 635 1004 l 596 1004 l 469 1171 l 347 1004 l 309 1004 z "},"Ü":{"ha":933,"x_min":122,"x_max":811,"o":"m 122 351 l 122 926 l 167 926 l 167 351 q 244 111 167 196 q 467 25 321 25 q 689 111 612 25 q 766 351 766 196 l 766 926 l 811 926 l 811 351 q 722 80 811 177 q 467 -17 633 -17 q 211 80 300 -17 q 122 351 122 178 m 299 1035 q 293 1041 299 1035 q 288 1063 288 1047 q 299 1090 288 1078 q 326 1101 311 1101 q 354 1090 342 1101 q 366 1063 366 1078 q 354 1035 366 1047 q 326 1023 342 1023 q 299 1035 311 1023 m 580 1035 q 574 1041 580 1035 q 568 1063 568 1047 q 580 1090 568 1078 q 607 1101 591 1101 q 634 1090 623 1101 q 646 1063 646 1078 q 634 1035 646 1047 q 607 1023 623 1023 q 580 1035 591 1023 z "},"Ý":{"ha":847,"x_min":29,"x_max":818,"o":"m 29 926 l 86 926 l 424 446 l 761 926 l 818 926 l 446 401 l 446 0 l 401 0 l 401 401 l 29 926 m 353 1004 l 575 1204 l 637 1204 l 395 1004 l 353 1004 z "},"Þ":{"ha":770,"x_min":122,"x_max":714,"o":"m 122 0 l 122 926 l 167 926 l 167 747 l 443 747 q 589 711 526 747 q 683 615 652 674 q 714 484 714 555 q 640 298 714 374 q 443 222 566 222 l 167 222 l 167 0 l 122 0 m 167 264 l 441 264 q 604 325 543 264 q 665 484 665 387 q 604 643 665 581 q 441 705 543 705 l 167 705 l 167 264 z "},"ß":{"ha":774,"x_min":119,"x_max":745,"o":"m 119 0 l 119 721 q 181 877 119 814 q 339 940 242 940 q 485 898 425 940 q 545 787 545 856 q 532 733 545 758 q 499 691 519 708 q 454 659 479 674 q 405 629 429 644 q 360 598 380 614 q 327 558 340 582 q 314 507 314 535 q 338 444 314 469 q 399 404 361 418 q 483 379 437 390 q 575 354 529 368 q 659 321 621 340 q 721 264 697 301 q 745 176 745 228 q 731 106 745 140 q 690 44 718 73 q 614 0 663 16 q 504 -17 566 -17 q 417 -9 456 -17 q 349 16 378 -1 q 300 49 320 32 q 258 90 281 66 l 292 121 q 504 21 368 21 q 651 66 600 21 q 703 176 703 112 q 679 247 703 218 q 617 292 655 276 q 533 319 579 307 q 441 345 488 332 q 357 377 395 359 q 296 429 319 395 q 272 510 272 463 q 296 587 272 553 q 353 643 319 621 q 421 685 387 665 q 479 730 455 705 q 503 787 503 756 q 452 871 503 840 q 339 903 401 903 q 213 853 264 903 q 161 721 161 803 l 161 0 l 119 0 z "},"à":{"ha":713,"x_min":86,"x_max":595,"o":"m 86 207 q 156 370 86 309 q 321 431 226 431 q 553 332 462 431 l 553 484 q 499 606 553 562 q 364 650 445 650 q 246 625 298 650 q 149 545 195 600 l 117 572 q 225 660 168 632 q 364 688 282 688 q 531 636 468 688 q 595 485 595 584 l 595 0 l 553 0 l 553 82 q 321 -17 462 -17 q 208 8 260 -17 q 121 86 155 34 q 86 207 86 138 m 187 340 q 160 313 187 340 q 132 207 132 287 q 187 74 132 127 q 332 21 242 21 q 457 47 399 21 q 553 123 515 73 l 553 290 q 457 367 515 340 q 332 393 399 393 q 187 340 242 393 m 150 972 l 212 972 l 435 772 l 393 772 l 150 972 z "},"á":{"ha":713,"x_min":86,"x_max":595,"o":"m 86 207 q 156 370 86 309 q 321 431 226 431 q 553 332 462 431 l 553 484 q 499 606 553 562 q 364 650 445 650 q 246 625 298 650 q 149 545 195 600 l 117 572 q 225 660 168 632 q 364 688 282 688 q 531 636 468 688 q 595 485 595 584 l 595 0 l 553 0 l 553 82 q 321 -17 462 -17 q 208 8 260 -17 q 121 86 155 34 q 86 207 86 138 m 187 340 q 160 313 187 340 q 132 207 132 287 q 187 74 132 127 q 332 21 242 21 q 457 47 399 21 q 553 123 515 73 l 553 290 q 457 367 515 340 q 332 393 399 393 q 187 340 242 393 m 293 772 l 515 972 l 578 972 l 335 772 l 293 772 z "},"â":{"ha":713,"x_min":86,"x_max":595,"o":"m 86 207 q 156 370 86 309 q 321 431 226 431 q 553 332 462 431 l 553 484 q 499 606 553 562 q 364 650 445 650 q 246 625 298 650 q 149 545 195 600 l 117 572 q 225 660 168 632 q 364 688 282 688 q 531 636 468 688 q 595 485 595 584 l 595 0 l 553 0 l 553 82 q 321 -17 462 -17 q 208 8 260 -17 q 121 86 155 34 q 86 207 86 138 m 187 340 q 160 313 187 340 q 132 207 132 287 q 187 74 132 127 q 332 21 242 21 q 457 47 399 21 q 553 123 515 73 l 553 290 q 457 367 515 340 q 332 393 399 393 q 187 340 242 393 m 203 772 l 339 972 l 389 972 l 529 772 l 490 772 l 364 939 l 241 772 l 203 772 z "},"ã":{"ha":713,"x_min":86,"x_max":595,"o":"m 86 207 q 156 370 86 309 q 321 431 226 431 q 553 332 462 431 l 553 484 q 499 606 553 562 q 364 650 445 650 q 246 625 298 650 q 149 545 195 600 l 117 572 q 225 660 168 632 q 364 688 282 688 q 531 636 468 688 q 595 485 595 584 l 595 0 l 553 0 l 553 82 q 321 -17 462 -17 q 208 8 260 -17 q 121 86 155 34 q 86 207 86 138 m 187 340 q 160 313 187 340 q 132 207 132 287 q 187 74 132 127 q 332 21 242 21 q 457 47 399 21 q 553 123 515 73 l 553 290 q 457 367 515 340 q 332 393 399 393 q 187 340 242 393 m 154 778 q 187 910 154 857 q 277 964 220 964 q 328 947 307 964 q 363 908 350 931 q 388 863 376 886 q 416 823 399 840 q 454 807 433 807 q 514 844 491 807 q 536 956 536 881 l 572 956 q 540 823 572 877 q 450 770 507 770 q 398 786 420 770 q 363 825 376 802 q 339 871 351 848 q 310 910 327 894 q 272 926 294 926 q 213 889 235 926 q 191 778 191 852 l 154 778 z "},"ä":{"ha":713,"x_min":86,"x_max":595,"o":"m 86 207 q 156 370 86 309 q 321 431 226 431 q 553 332 462 431 l 553 484 q 499 606 553 562 q 364 650 445 650 q 246 625 298 650 q 149 545 195 600 l 117 572 q 225 660 168 632 q 364 688 282 688 q 531 636 468 688 q 595 485 595 584 l 595 0 l 553 0 l 553 82 q 321 -17 462 -17 q 208 8 260 -17 q 121 86 155 34 q 86 207 86 138 m 187 340 q 160 313 187 340 q 132 207 132 287 q 187 74 132 127 q 332 21 242 21 q 457 47 399 21 q 553 123 515 73 l 553 290 q 457 367 515 340 q 332 393 399 393 q 187 340 242 393 m 194 803 q 188 809 194 803 q 182 831 182 815 q 194 858 182 846 q 221 869 205 869 q 248 858 237 869 q 260 831 260 846 q 248 803 260 815 q 221 791 237 791 q 194 803 205 791 m 474 803 q 468 809 474 803 q 463 831 463 815 q 474 858 463 846 q 501 869 486 869 q 529 858 517 869 q 541 831 541 846 q 529 803 541 815 q 501 791 517 791 q 474 803 486 791 z "},"å":{"ha":713,"x_min":86,"x_max":595,"o":"m 86 207 q 156 370 86 309 q 321 431 226 431 q 553 332 462 431 l 553 484 q 499 606 553 562 q 364 650 445 650 q 246 625 298 650 q 149 545 195 600 l 117 572 q 225 660 168 632 q 364 688 282 688 q 531 636 468 688 q 595 485 595 584 l 595 0 l 553 0 l 553 82 q 321 -17 462 -17 q 208 8 260 -17 q 121 86 155 34 q 86 207 86 138 m 187 340 q 160 313 187 340 q 132 207 132 287 q 187 74 132 127 q 332 21 242 21 q 457 47 399 21 q 553 123 515 73 l 553 290 q 457 367 515 340 q 332 393 399 393 q 187 340 242 393 m 272 806 q 252 825 272 806 q 233 897 233 844 q 272 988 233 950 q 363 1026 310 1026 q 453 988 416 1026 q 490 897 490 950 q 453 806 490 844 q 363 768 416 768 q 272 806 310 768 m 295 965 q 281 951 295 965 q 267 897 267 937 q 295 830 267 858 q 363 802 323 802 q 430 829 402 802 q 457 897 457 857 q 430 965 457 937 q 363 993 402 993 q 295 965 323 993 z "},"æ":{"ha":1257,"x_min":86,"x_max":1174,"o":"m 86 208 q 122 329 86 277 q 213 406 157 380 q 336 431 269 431 q 589 335 491 431 l 589 484 q 533 606 589 563 q 383 650 477 650 q 255 625 311 650 q 149 545 199 600 l 117 572 q 395 688 214 688 q 469 679 433 688 q 541 652 505 671 q 600 598 576 633 q 628 515 623 563 q 728 639 660 590 q 879 688 797 688 q 985 669 937 688 q 1068 617 1034 650 q 1127 540 1103 585 q 1162 444 1151 496 q 1174 336 1174 393 l 1174 322 l 631 322 q 706 108 635 195 q 892 21 777 21 q 1109 122 1021 21 l 1135 96 q 1028 11 1085 39 q 893 -17 971 -17 q 726 34 798 -17 q 618 180 653 85 q 517 36 589 90 q 351 -17 446 -17 q 160 43 235 -17 q 86 208 86 104 m 192 340 q 162 313 192 340 q 132 207 132 287 q 192 74 132 127 q 350 21 252 21 q 524 92 458 21 q 589 261 589 162 l 589 288 q 485 366 547 338 q 350 393 422 393 q 192 340 252 393 m 631 359 l 1129 359 q 1120 439 1129 399 q 1092 517 1112 479 q 1044 585 1072 555 q 973 632 1016 614 q 879 650 930 650 q 792 632 833 650 q 724 586 752 614 q 674 519 695 557 q 643 440 653 481 q 631 359 632 400 z "},"ç":{"ha":684,"x_min":83,"x_max":629,"o":"m 83 336 q 121 513 83 433 q 232 640 159 592 q 400 688 305 688 q 531 660 478 688 q 629 575 583 632 l 599 550 q 512 627 559 604 q 403 650 464 650 q 256 608 319 650 q 161 495 193 566 q 129 336 129 425 q 203 111 129 201 q 403 21 277 21 q 599 122 525 21 l 629 96 q 536 14 586 41 q 415 -17 486 -14 l 393 -78 q 446 -61 414 -61 q 511 -85 486 -61 q 536 -151 536 -110 q 497 -227 536 -197 q 400 -257 458 -257 q 327 -246 362 -257 q 271 -218 292 -235 l 290 -180 q 400 -220 335 -220 q 468 -201 440 -220 q 496 -151 496 -182 q 480 -107 496 -123 q 435 -92 465 -92 q 375 -118 396 -92 l 345 -100 l 375 -16 q 220 40 287 -9 q 118 166 153 89 q 83 336 83 243 z "},"è":{"ha":793,"x_min":83,"x_max":710,"o":"m 83 336 q 124 513 83 433 q 238 641 165 593 q 399 688 311 688 q 534 659 473 688 q 632 582 594 631 q 690 470 670 532 q 710 336 710 407 l 710 322 l 131 322 q 167 172 133 239 q 265 62 201 104 q 412 21 330 21 q 646 122 551 21 l 671 96 q 555 12 617 40 q 412 -17 494 -17 q 175 83 267 -17 q 83 336 83 182 m 131 359 l 665 359 q 655 439 665 399 q 623 517 645 479 q 571 585 602 555 q 495 632 541 614 q 397 650 450 650 q 304 632 347 650 q 230 586 261 614 q 177 519 199 557 q 143 440 155 481 q 131 359 132 400 m 184 972 l 248 972 l 469 772 l 428 772 l 184 972 z "},"é":{"ha":793,"x_min":83,"x_max":710,"o":"m 83 336 q 124 513 83 433 q 238 641 165 593 q 399 688 311 688 q 534 659 473 688 q 632 582 594 631 q 690 470 670 532 q 710 336 710 407 l 710 322 l 131 322 q 167 172 133 239 q 265 62 201 104 q 412 21 330 21 q 646 122 551 21 l 671 96 q 555 12 617 40 q 412 -17 494 -17 q 175 83 267 -17 q 83 336 83 182 m 131 359 l 665 359 q 655 439 665 399 q 623 517 645 479 q 571 585 602 555 q 495 632 541 614 q 397 650 450 650 q 304 632 347 650 q 230 586 261 614 q 177 519 199 557 q 143 440 155 481 q 131 359 132 400 m 328 772 l 550 972 l 612 972 l 370 772 l 328 772 z "},"ê":{"ha":793,"x_min":83,"x_max":710,"o":"m 83 336 q 124 513 83 433 q 238 641 165 593 q 399 688 311 688 q 534 659 473 688 q 632 582 594 631 q 690 470 670 532 q 710 336 710 407 l 710 322 l 131 322 q 167 172 133 239 q 265 62 201 104 q 412 21 330 21 q 646 122 551 21 l 671 96 q 555 12 617 40 q 412 -17 494 -17 q 175 83 267 -17 q 83 336 83 182 m 131 359 l 665 359 q 655 439 665 399 q 623 517 645 479 q 571 585 602 555 q 495 632 541 614 q 397 650 450 650 q 304 632 347 650 q 230 586 261 614 q 177 519 199 557 q 143 440 155 481 q 131 359 132 400 m 239 772 l 375 972 l 425 972 l 566 772 l 526 772 l 400 939 l 278 772 l 239 772 z "},"ë":{"ha":793,"x_min":83,"x_max":710,"o":"m 83 336 q 124 513 83 433 q 238 641 165 593 q 399 688 311 688 q 534 659 473 688 q 632 582 594 631 q 690 470 670 532 q 710 336 710 407 l 710 322 l 131 322 q 167 172 133 239 q 265 62 201 104 q 412 21 330 21 q 646 122 551 21 l 671 96 q 555 12 617 40 q 412 -17 494 -17 q 175 83 267 -17 q 83 336 83 182 m 131 359 l 665 359 q 655 439 665 399 q 623 517 645 479 q 571 585 602 555 q 495 632 541 614 q 397 650 450 650 q 304 632 347 650 q 230 586 261 614 q 177 519 199 557 q 143 440 155 481 q 131 359 132 400 m 233 803 q 227 809 233 803 q 221 831 221 815 q 233 858 221 846 q 260 869 244 869 q 287 858 275 869 q 298 831 298 846 q 287 803 298 815 q 260 791 275 791 q 233 803 244 791 m 513 803 q 507 809 513 803 q 501 831 501 815 q 513 858 501 846 q 541 869 525 869 q 568 858 556 869 q 579 831 579 846 q 568 803 579 815 q 541 791 556 791 q 513 803 525 791 z "},"ì":{"ha":280,"x_min":-74,"x_max":211,"o":"m -74 972 l -11 972 l 211 772 l 170 772 l -74 972 m 119 0 l 119 671 l 161 671 l 161 0 l 119 0 z "},"í":{"ha":280,"x_min":69,"x_max":354,"o":"m 69 772 l 292 972 l 354 972 l 111 772 l 69 772 m 119 0 l 119 671 l 161 671 l 161 0 l 119 0 z "},"î":{"ha":280,"x_min":-22,"x_max":304,"o":"m -22 772 l 114 972 l 164 972 l 304 772 l 265 772 l 139 939 l 17 772 l -22 772 m 119 0 l 119 671 l 161 671 l 161 0 l 119 0 z "},"ï":{"ha":280,"x_min":-39,"x_max":319,"o":"m -27 803 q -33 809 -27 803 q -39 831 -39 815 q -27 858 -39 846 q 0 869 -16 869 q 27 858 16 869 q 39 831 39 846 q 27 803 39 815 q 0 791 16 791 q -27 803 -16 791 m 119 0 l 119 671 l 161 671 l 161 0 l 119 0 m 253 803 q 247 809 253 803 q 241 831 241 815 q 253 858 241 846 q 281 869 265 869 q 308 858 296 869 q 319 831 319 846 q 308 803 319 815 q 281 791 296 791 q 253 803 265 791 z "},"ð":{"ha":791,"x_min":83,"x_max":708,"o":"m 122 158 q 103 198 122 158 q 83 336 83 238 q 122 514 83 435 q 232 641 160 594 q 396 688 304 688 q 513 661 460 688 q 612 570 566 634 q 387 811 525 707 l 192 725 l 176 761 l 351 839 q 231 918 300 876 l 256 956 q 399 860 345 901 l 553 928 l 568 892 l 433 832 q 708 336 708 606 q 670 157 708 237 q 561 30 633 77 q 396 -17 489 -17 q 232 30 304 -17 q 122 158 160 77 m 129 336 q 159 182 129 253 q 252 66 190 111 q 396 21 314 21 q 510 47 458 21 q 594 117 562 73 q 645 218 627 161 q 663 336 663 274 q 645 454 663 398 q 594 554 627 510 q 510 624 562 597 q 396 650 458 650 q 252 605 314 650 q 159 490 190 560 q 129 336 129 419 z "},"ñ":{"ha":733,"x_min":119,"x_max":614,"o":"m 119 0 l 119 671 l 161 671 l 161 566 q 270 651 202 615 q 404 688 338 688 q 561 635 508 688 q 614 468 614 583 l 614 0 l 572 0 l 572 468 q 528 609 572 568 q 399 650 483 650 q 266 613 332 650 q 161 524 199 576 l 161 0 l 119 0 m 158 778 q 191 910 158 857 q 281 964 224 964 q 332 947 311 964 q 367 908 354 931 q 392 863 380 886 q 420 823 404 840 q 458 807 437 807 q 518 844 495 807 q 541 956 541 881 l 576 956 q 544 823 576 877 q 454 770 511 770 q 403 786 425 770 q 368 825 381 802 q 343 871 355 848 q 315 910 332 894 q 277 926 298 926 q 217 889 240 926 q 195 778 195 852 l 158 778 z "},"ò":{"ha":791,"x_min":83,"x_max":708,"o":"m 122 158 q 103 198 122 158 q 83 336 83 238 q 122 514 83 435 q 232 641 160 594 q 396 688 304 688 q 561 641 489 688 q 670 515 633 594 q 708 336 708 435 q 670 157 708 237 q 561 30 633 77 q 396 -17 489 -17 q 232 30 304 -17 q 122 158 160 77 m 129 336 q 159 182 129 253 q 252 66 190 111 q 396 21 314 21 q 510 47 458 21 q 594 117 562 73 q 645 218 627 161 q 663 336 663 274 q 645 454 663 398 q 594 554 627 510 q 510 624 562 597 q 396 650 458 650 q 252 605 314 650 q 159 490 190 560 q 129 336 129 419 m 182 972 l 244 972 l 467 772 l 425 772 l 182 972 z "},"ó":{"ha":791,"x_min":83,"x_max":708,"o":"m 122 158 q 103 198 122 158 q 83 336 83 238 q 122 514 83 435 q 232 641 160 594 q 396 688 304 688 q 561 641 489 688 q 670 515 633 594 q 708 336 708 435 q 670 157 708 237 q 561 30 633 77 q 396 -17 489 -17 q 232 30 304 -17 q 122 158 160 77 m 129 336 q 159 182 129 253 q 252 66 190 111 q 396 21 314 21 q 510 47 458 21 q 594 117 562 73 q 645 218 627 161 q 663 336 663 274 q 645 454 663 398 q 594 554 627 510 q 510 624 562 597 q 396 650 458 650 q 252 605 314 650 q 159 490 190 560 q 129 336 129 419 m 325 772 l 547 972 l 610 972 l 367 772 l 325 772 z "},"ô":{"ha":791,"x_min":83,"x_max":708,"o":"m 122 158 q 103 198 122 158 q 83 336 83 238 q 122 514 83 435 q 232 641 160 594 q 396 688 304 688 q 561 641 489 688 q 670 515 633 594 q 708 336 708 435 q 670 157 708 237 q 561 30 633 77 q 396 -17 489 -17 q 232 30 304 -17 q 122 158 160 77 m 129 336 q 159 182 129 253 q 252 66 190 111 q 396 21 314 21 q 510 47 458 21 q 594 117 562 73 q 645 218 627 161 q 663 336 663 274 q 645 454 663 398 q 594 554 627 510 q 510 624 562 597 q 396 650 458 650 q 252 605 314 650 q 159 490 190 560 q 129 336 129 419 m 235 772 l 371 972 l 421 972 l 561 772 l 522 772 l 396 939 l 273 772 l 235 772 z "},"õ":{"ha":791,"x_min":83,"x_max":708,"o":"m 122 158 q 103 198 122 158 q 83 336 83 238 q 122 514 83 435 q 232 641 160 594 q 396 688 304 688 q 561 641 489 688 q 670 515 633 594 q 708 336 708 435 q 670 157 708 237 q 561 30 633 77 q 396 -17 489 -17 q 232 30 304 -17 q 122 158 160 77 m 129 336 q 159 182 129 253 q 252 66 190 111 q 396 21 314 21 q 510 47 458 21 q 594 117 562 73 q 645 218 627 161 q 663 336 663 274 q 645 454 663 398 q 594 554 627 510 q 510 624 562 597 q 396 650 458 650 q 252 605 314 650 q 159 490 190 560 q 129 336 129 419 m 187 778 q 220 910 187 857 q 310 964 253 964 q 361 947 340 964 q 396 908 383 931 q 421 863 410 886 q 449 823 433 840 q 488 807 466 807 q 547 844 524 807 q 570 956 570 881 l 606 956 q 573 823 606 877 q 484 770 541 770 q 432 786 454 770 q 397 825 410 802 q 372 871 384 848 q 344 910 361 894 q 306 926 328 926 q 247 889 269 926 q 224 778 224 852 l 187 778 z "},"ö":{"ha":791,"x_min":83,"x_max":708,"o":"m 122 158 q 103 198 122 158 q 83 336 83 238 q 122 514 83 435 q 232 641 160 594 q 396 688 304 688 q 561 641 489 688 q 670 515 633 594 q 708 336 708 435 q 670 157 708 237 q 561 30 633 77 q 396 -17 489 -17 q 232 30 304 -17 q 122 158 160 77 m 129 336 q 159 182 129 253 q 252 66 190 111 q 396 21 314 21 q 510 47 458 21 q 594 117 562 73 q 645 218 627 161 q 663 336 663 274 q 645 454 663 398 q 594 554 627 510 q 510 624 562 597 q 396 650 458 650 q 252 605 314 650 q 159 490 190 560 q 129 336 129 419 m 228 803 q 222 809 228 803 q 216 831 216 815 q 228 858 216 846 q 256 869 240 869 q 283 858 271 869 q 294 831 294 846 q 283 803 294 815 q 256 791 271 791 q 228 803 240 791 m 509 803 q 503 809 509 803 q 497 831 497 815 q 509 858 497 846 q 536 869 521 869 q 564 858 552 869 q 575 831 575 846 q 564 803 575 815 q 536 791 552 791 q 509 803 521 791 z "},"÷":{"ha":709,"x_min":40,"x_max":669,"o":"m 40 447 l 40 489 l 669 489 l 669 447 l 40 447 m 323 152 q 317 159 323 152 q 310 184 310 165 q 323 217 310 203 q 355 231 336 231 q 388 217 374 231 q 401 184 401 203 q 388 152 401 165 q 355 139 374 139 q 323 152 336 139 m 323 711 q 317 719 323 711 q 310 745 310 726 q 323 776 310 764 q 355 789 336 789 q 388 776 374 789 q 401 745 401 763 q 388 711 401 726 q 355 697 374 697 q 323 711 337 697 z "},"ø":{"ha":791,"x_min":83,"x_max":708,"o":"m 83 336 q 122 514 83 435 q 232 641 160 594 q 396 688 304 688 q 581 627 501 688 l 614 671 l 660 671 l 608 602 q 682 485 656 553 q 708 336 708 416 q 670 157 708 237 q 561 30 633 77 q 396 -17 489 -17 q 203 52 286 -17 l 164 0 l 117 0 l 175 78 q 83 336 83 178 m 129 336 q 201 114 129 203 l 555 593 q 396 650 488 650 q 252 605 314 650 q 159 490 190 560 q 129 336 129 419 m 227 85 q 396 21 294 21 q 510 47 458 21 q 594 117 562 73 q 645 218 627 161 q 663 336 663 274 q 642 463 663 403 q 583 567 621 524 l 227 85 z "},"ù":{"ha":733,"x_min":119,"x_max":614,"o":"m 119 200 l 119 671 l 161 671 l 161 200 q 206 61 161 100 q 335 21 250 21 q 469 56 402 21 q 572 143 536 92 l 572 671 l 614 671 l 614 0 l 572 0 l 572 103 q 461 17 526 52 q 329 -17 395 -17 q 172 34 225 -17 q 119 200 119 85 m 153 972 l 215 972 l 437 772 l 396 772 l 153 972 z "},"ú":{"ha":733,"x_min":119,"x_max":614,"o":"m 119 200 l 119 671 l 161 671 l 161 200 q 206 61 161 100 q 335 21 250 21 q 469 56 402 21 q 572 143 536 92 l 572 671 l 614 671 l 614 0 l 572 0 l 572 103 q 461 17 526 52 q 329 -17 395 -17 q 172 34 225 -17 q 119 200 119 85 m 296 772 l 518 972 l 581 972 l 338 772 l 296 772 z "},"û":{"ha":733,"x_min":119,"x_max":614,"o":"m 119 200 l 119 671 l 161 671 l 161 200 q 206 61 161 100 q 335 21 250 21 q 469 56 402 21 q 572 143 536 92 l 572 671 l 614 671 l 614 0 l 572 0 l 572 103 q 461 17 526 52 q 329 -17 395 -17 q 172 34 225 -17 q 119 200 119 85 m 203 772 l 339 972 l 389 972 l 529 772 l 490 772 l 364 939 l 241 772 l 203 772 z "},"ü":{"ha":733,"x_min":119,"x_max":614,"o":"m 119 200 l 119 671 l 161 671 l 161 200 q 206 61 161 100 q 335 21 250 21 q 469 56 402 21 q 572 143 536 92 l 572 671 l 614 671 l 614 0 l 572 0 l 572 103 q 461 17 526 52 q 329 -17 395 -17 q 172 34 225 -17 q 119 200 119 85 m 205 803 q 199 809 205 803 q 193 831 193 815 q 205 858 193 846 q 232 869 216 869 q 259 858 248 869 q 271 831 271 846 q 259 803 271 815 q 232 791 248 791 q 205 803 216 791 m 485 803 q 479 809 485 803 q 473 831 473 815 q 485 858 473 846 q 513 869 497 869 q 540 858 528 869 q 551 831 551 846 q 540 803 551 815 q 513 791 528 791 q 485 803 497 791 z "},"ý":{"ha":654,"x_min":16,"x_max":639,"o":"m 16 671 l 64 671 l 328 49 l 590 671 l 639 671 l 283 -158 q 136 -272 233 -272 q 69 -262 99 -272 l 78 -224 q 136 -235 103 -235 q 195 -215 172 -235 q 241 -143 219 -195 l 302 -4 l 16 671 m 257 772 l 479 972 l 542 972 l 298 772 l 257 772 z "},"þ":{"ha":780,"x_min":119,"x_max":703,"o":"m 119 -256 l 119 926 l 161 926 l 161 558 q 263 651 199 614 q 403 688 328 688 q 621 592 538 688 q 703 336 703 496 q 620 80 703 178 q 403 -17 538 -17 q 266 19 330 -17 q 161 115 203 54 l 161 -256 l 119 -256 m 161 157 q 261 61 194 100 q 403 21 328 21 q 590 110 522 21 q 657 336 657 199 q 590 562 657 473 q 403 650 522 650 q 261 611 328 650 q 161 517 194 572 l 161 157 z "},"ÿ":{"ha":654,"x_min":16,"x_max":639,"o":"m 16 671 l 64 671 l 328 49 l 590 671 l 639 671 l 283 -158 q 136 -272 233 -272 q 69 -262 99 -272 l 78 -224 q 136 -235 103 -235 q 195 -215 172 -235 q 241 -143 219 -195 l 302 -4 l 16 671 m 160 803 q 154 809 160 803 q 149 831 149 815 q 160 858 149 846 q 187 869 172 869 q 215 858 203 869 q 227 831 227 846 q 215 803 227 815 q 187 791 203 791 q 160 803 172 791 m 441 803 q 435 809 441 803 q 429 831 429 815 q 441 858 429 846 q 468 869 452 869 q 495 858 484 869 q 507 831 507 846 q 495 803 507 815 q 468 791 484 791 q 441 803 452 791 z "},"Œ":{"ha":1560,"x_min":90,"x_max":1471,"o":"m 90 463 q 121 650 90 562 q 209 802 153 738 q 348 903 265 866 q 530 940 431 940 q 749 880 649 940 q 904 708 850 820 l 904 926 l 1471 926 l 1471 885 l 949 885 l 949 497 l 1461 497 l 1461 456 l 949 456 l 949 41 l 1471 41 l 1471 0 l 904 0 l 904 218 q 749 44 850 106 q 530 -17 649 -17 q 298 47 399 -17 q 143 220 197 111 q 90 463 90 328 m 139 463 q 186 237 139 336 q 323 82 233 138 q 530 25 412 25 q 759 96 660 25 q 904 302 857 166 l 904 624 q 759 829 857 760 q 530 899 661 899 q 246 777 353 899 q 139 463 139 656 z "},"œ":{"ha":1372,"x_min":83,"x_max":1289,"o":"m 122 158 q 103 198 122 158 q 83 336 83 238 q 122 514 83 435 q 232 641 160 594 q 396 688 304 688 q 482 676 441 688 q 552 646 523 665 q 606 603 582 627 q 646 553 629 580 q 672 504 662 527 q 686 460 682 481 q 708 515 694 486 q 747 575 722 543 q 803 631 772 606 q 881 671 835 655 q 978 688 926 688 q 1113 659 1053 688 q 1211 582 1173 631 q 1269 470 1249 532 q 1289 336 1289 407 l 1289 322 l 710 322 q 746 172 712 239 q 844 62 780 104 q 991 21 909 21 q 1225 122 1130 21 l 1250 96 q 1135 12 1196 40 q 991 -17 1073 -17 q 888 -1 936 -17 q 807 38 840 14 q 748 93 774 62 q 708 154 722 125 q 686 211 694 182 q 666 156 678 183 q 629 96 653 129 q 574 40 604 64 q 497 -1 543 16 q 396 -17 450 -17 q 232 30 304 -17 q 122 158 160 77 m 129 336 q 159 181 129 252 q 252 65 190 111 q 396 20 314 20 q 510 46 458 20 q 594 117 562 73 q 645 217 627 161 q 663 336 663 274 q 645 454 663 398 q 594 554 627 510 q 510 624 562 597 q 396 650 458 650 q 252 605 314 650 q 159 490 190 560 q 129 336 129 419 m 710 359 l 1244 359 q 1234 439 1244 399 q 1202 517 1224 479 q 1150 585 1181 555 q 1075 632 1120 614 q 977 650 1029 650 q 883 632 926 650 q 809 586 840 614 q 756 519 779 557 q 723 440 734 481 q 710 359 711 400 z "},"Ÿ":{"ha":847,"x_min":29,"x_max":818,"o":"m 29 926 l 86 926 l 424 446 l 761 926 l 818 926 l 446 401 l 446 0 l 401 0 l 401 401 l 29 926 m 262 1035 q 256 1041 262 1035 q 250 1063 250 1047 q 262 1090 250 1078 q 289 1101 273 1101 q 316 1090 304 1101 q 328 1063 328 1078 q 316 1035 328 1047 q 289 1023 304 1023 q 262 1035 273 1023 m 542 1035 q 536 1041 542 1035 q 530 1063 530 1047 q 542 1090 530 1078 q 570 1101 554 1101 q 597 1090 585 1101 q 608 1063 608 1078 q 597 1035 608 1047 q 570 1023 585 1023 q 542 1035 554 1023 z "},"ˆ":{"ha":326,"x_min":0,"x_max":326,"o":"m 0 772 l 136 972 l 186 972 l 326 772 l 288 772 l 161 939 l 39 772 l 0 772 z "},"˜":{"ha":418,"x_min":0,"x_max":418,"o":"m 0 778 q 33 910 0 857 q 122 964 65 964 q 174 947 152 964 q 209 908 195 931 q 233 863 222 886 q 261 823 245 840 q 300 807 278 807 q 359 844 336 807 q 382 956 382 881 l 418 956 q 385 823 418 877 q 296 770 353 770 q 244 786 266 770 q 209 825 222 802 q 184 871 196 848 q 156 910 173 894 q 118 926 140 926 q 59 889 81 926 q 36 778 36 852 l 0 778 z "}," ":{"ha":610,"x_min":0,"x_max":0,"o":""}," ":{"ha":1219,"x_min":0,"x_max":0,"o":""}," ":{"ha":610,"x_min":0,"x_max":0,"o":""}," ":{"ha":1219,"x_min":0,"x_max":0,"o":""}," ":{"ha":406,"x_min":0,"x_max":0,"o":""}," ":{"ha":304,"x_min":0,"x_max":0,"o":""}," ":{"ha":203,"x_min":0,"x_max":0,"o":""}," ":{"ha":203,"x_min":0,"x_max":0,"o":""}," ":{"ha":152,"x_min":0,"x_max":0,"o":""}," ":{"ha":243,"x_min":0,"x_max":0,"o":""}," ":{"ha":67,"x_min":0,"x_max":0,"o":""},"‐":{"ha":416,"x_min":41,"x_max":375,"o":"m 41 315 l 41 357 l 375 357 l 375 315 l 41 315 z "},"‑":{"ha":416,"x_min":41,"x_max":375,"o":"m 41 315 l 41 357 l 375 357 l 375 315 l 41 315 z "},"‒":{"ha":416,"x_min":41,"x_max":375,"o":"m 41 315 l 41 357 l 375 357 l 375 315 l 41 315 z "},"–":{"ha":823,"x_min":41,"x_max":782,"o":"m 41 315 l 41 357 l 782 357 l 782 315 l 41 315 z "},"—":{"ha":1156,"x_min":41,"x_max":1116,"o":"m 41 315 l 41 357 l 1116 357 l 1116 315 l 41 315 z "},"‘":{"ha":288,"x_min":77,"x_max":193,"o":"m 77 772 q 102 868 77 822 q 163 940 127 915 l 193 916 q 140 855 160 891 q 119 787 119 819 q 131 789 128 789 q 163 775 151 789 q 175 743 175 762 q 162 712 175 725 q 131 699 150 699 q 92 718 108 699 q 77 772 77 738 z "},"’":{"ha":288,"x_min":81,"x_max":197,"o":"m 81 724 q 134 784 114 748 q 154 851 154 819 q 143 850 146 850 q 111 863 123 850 q 98 896 98 877 q 111 927 98 914 q 143 940 123 940 q 182 920 166 940 q 197 867 197 901 q 172 770 197 817 q 111 699 146 724 l 81 724 z "},"‚":{"ha":288,"x_min":81,"x_max":197,"o":"m 81 -139 q 134 -79 114 -115 q 154 -11 154 -43 q 143 -12 146 -12 q 111 1 123 -12 q 98 33 98 14 q 111 65 98 52 q 143 78 123 78 q 182 58 166 78 q 197 4 197 39 q 172 -92 197 -45 q 111 -164 146 -139 l 81 -139 z "},"“":{"ha":459,"x_min":92,"x_max":379,"o":"m 92 772 q 117 868 92 822 q 178 940 142 915 l 208 916 q 155 855 175 891 q 135 787 135 819 q 146 789 143 789 q 178 775 165 789 q 191 743 191 762 q 178 712 191 725 q 146 699 165 699 q 107 718 123 699 q 92 772 92 738 m 262 772 q 288 868 262 822 q 349 940 313 915 l 379 916 q 326 855 346 891 q 306 787 306 819 q 317 789 314 789 q 349 775 336 789 q 361 743 361 762 q 348 712 361 725 q 317 699 336 699 q 278 718 294 699 q 262 772 262 738 z "},"”":{"ha":459,"x_min":81,"x_max":368,"o":"m 81 724 q 134 784 114 748 q 154 851 154 819 q 143 850 146 850 q 111 863 123 850 q 98 896 98 877 q 111 927 98 914 q 143 940 123 940 q 182 920 166 940 q 197 867 197 901 q 172 770 197 817 q 111 699 146 724 l 81 724 m 252 724 q 305 784 285 748 q 325 851 325 819 q 314 850 317 850 q 282 863 294 850 q 269 896 269 877 q 282 927 269 914 q 314 940 294 940 q 353 920 337 940 q 368 867 368 901 q 343 770 368 817 q 282 699 317 724 l 252 724 z "},"„":{"ha":459,"x_min":81,"x_max":368,"o":"m 81 -139 q 134 -79 114 -115 q 154 -11 154 -43 q 143 -12 146 -12 q 111 1 123 -12 q 98 33 98 14 q 111 65 98 52 q 143 78 123 78 q 182 58 166 78 q 197 4 197 39 q 172 -92 197 -45 q 111 -164 146 -139 l 81 -139 m 252 -139 q 305 -79 285 -115 q 325 -11 325 -43 q 314 -12 317 -12 q 282 1 294 -12 q 269 33 269 14 q 282 65 269 52 q 314 78 294 78 q 353 58 337 78 q 368 4 368 39 q 343 -92 368 -45 q 282 -164 317 -139 l 252 -139 z "},"•":{"ha":497,"x_min":114,"x_max":386,"o":"m 114 336 q 154 432 114 393 q 250 472 194 472 q 346 432 307 472 q 386 336 386 393 q 346 241 386 281 q 250 201 307 201 q 154 241 194 201 q 114 336 114 281 z "},"…":{"ha":866,"x_min":98,"x_max":768,"o":"m 98 33 q 112 64 98 51 q 144 78 125 78 q 177 64 163 78 q 191 33 191 51 q 177 1 191 14 q 144 -12 163 -12 q 112 1 125 -12 q 98 33 98 14 m 387 33 q 401 64 387 51 q 433 78 414 78 q 466 64 452 78 q 479 33 479 51 q 466 1 479 14 q 433 -12 452 -12 q 401 1 414 -12 q 387 33 387 14 m 676 33 q 690 64 676 51 q 722 78 703 78 q 755 64 741 78 q 768 33 768 51 q 755 1 768 14 q 722 -12 741 -12 q 690 1 703 -12 q 676 33 676 14 z "}," ":{"ha":243,"x_min":0,"x_max":0,"o":""},"‹":{"ha":359,"x_min":41,"x_max":318,"o":"m 41 338 l 264 583 l 318 583 l 96 338 l 318 87 l 264 87 l 41 338 z "},"›":{"ha":359,"x_min":41,"x_max":318,"o":"m 41 87 l 264 338 l 41 583 l 96 583 l 318 338 l 96 87 l 41 87 z "}," ":{"ha":304,"x_min":0,"x_max":0,"o":""},"€":{"ha":949,"x_min":54,"x_max":904,"o":"m 54 343 l 54 385 l 123 385 q 118 463 118 418 q 123 543 118 490 l 54 543 l 54 585 l 131 585 q 292 844 168 746 q 581 942 416 942 q 903 796 776 942 l 868 765 q 742 864 819 827 q 581 900 666 900 q 325 814 434 900 q 180 585 216 728 l 664 585 l 664 543 l 172 543 q 167 463 167 508 q 172 385 167 435 l 664 385 l 664 343 l 180 343 q 325 112 215 199 q 581 25 434 25 q 742 61 666 25 q 868 160 819 98 l 904 131 q 581 -17 772 -17 q 291 82 415 -17 q 131 343 168 180 l 54 343 z "},"™":{"ha":630,"x_min":24,"x_max":582,"o":"m 24 890 l 24 926 l 235 926 l 235 890 l 149 890 l 149 621 l 110 621 l 110 890 l 24 890 m 285 621 l 285 926 l 345 926 l 433 704 l 522 926 l 582 926 l 582 621 l 543 621 l 543 873 l 439 621 l 428 621 l 323 873 l 323 621 l 285 621 z "},"◼":{"ha":673,"x_min":0,"x_max":673,"o":"m 0 0 l 0 673 l 673 673 l 673 0 l 0 0 z "},"ﬁ":{"ha":622,"x_min":28,"x_max":522,"o":"m 28 633 l 28 671 l 139 671 l 139 742 q 183 888 139 836 q 307 940 228 940 q 386 922 355 940 l 368 886 q 307 903 339 903 q 212 861 244 903 q 180 742 180 819 l 180 671 l 317 671 l 317 633 l 180 633 l 180 0 l 139 0 l 139 633 l 28 633 m 454 798 q 448 804 454 798 q 441 827 441 810 q 454 855 441 843 q 482 867 466 867 q 511 855 499 867 q 522 827 522 844 q 511 798 522 810 q 482 786 499 786 q 454 798 466 786 m 461 0 l 461 671 l 503 671 l 503 0 l 461 0 z "},"ﬂ":{"ha":622,"x_min":28,"x_max":503,"o":"m 28 633 l 28 671 l 139 671 l 139 742 q 183 888 139 836 q 307 940 228 940 q 386 922 355 940 l 368 886 q 307 903 339 903 q 212 861 244 903 q 180 742 180 819 l 180 671 l 317 671 l 317 633 l 180 633 l 180 0 l 139 0 l 139 633 l 28 633 m 461 0 l 461 926 l 503 926 l 503 0 l 461 0 z "},"ﬃ":{"ha":964,"x_min":28,"x_max":864,"o":"m 28 633 l 28 671 l 139 671 l 139 742 q 183 888 139 836 q 307 940 228 940 q 366 931 341 940 q 421 899 391 923 l 396 865 q 307 903 357 903 q 212 861 244 903 q 180 742 180 819 l 180 671 l 317 671 l 317 633 l 180 633 l 180 0 l 139 0 l 139 633 l 28 633 m 370 633 l 370 671 l 481 671 l 481 742 q 525 888 481 836 q 648 940 569 940 q 728 922 697 940 l 710 886 q 648 903 681 903 q 554 861 586 903 q 522 742 522 819 l 522 671 l 659 671 l 659 633 l 522 633 l 522 0 l 481 0 l 481 633 l 370 633 m 783 827 q 795 855 783 843 q 823 867 807 867 q 852 855 840 867 q 864 827 864 844 q 852 798 864 810 q 823 786 840 786 q 795 798 807 786 q 783 827 783 810 m 803 0 l 803 671 l 844 671 l 844 0 l 803 0 z "},"ﬄ":{"ha":964,"x_min":28,"x_max":844,"o":"m 28 633 l 28 671 l 139 671 l 139 742 q 183 888 139 836 q 307 940 228 940 q 366 931 341 940 q 421 899 391 923 l 396 865 q 307 903 357 903 q 212 861 244 903 q 180 742 180 819 l 180 671 l 317 671 l 317 633 l 180 633 l 180 0 l 139 0 l 139 633 l 28 633 m 370 633 l 370 671 l 481 671 l 481 742 q 525 888 481 836 q 648 940 569 940 q 728 922 697 940 l 710 886 q 648 903 681 903 q 554 861 586 903 q 522 742 522 819 l 522 671 l 659 671 l 659 633 l 522 633 l 522 0 l 481 0 l 481 633 l 370 633 m 803 0 l 803 926 l 844 926 l 844 0 l 803 0 z "}}}
